<svg version="1.1" viewBox="0.0 0.0 960.0 540.0" fill="none" stroke="none" stroke-linecap="square" stroke-miterlimit="10" xmlns:xlink="http://www.w3.org/1999/xlink" xmlns="http://www.w3.org/2000/svg"><clipPath id="p.0"><path d="m0 0l960.0 0l0 540.0l-960.0 0l0 -540.0z" clip-rule="nonzero"/></clipPath><g clip-path="url(#p.0)"><path fill="#ffffff" d="m0 0l960.0 0l0 540.0l-960.0 0z" fill-rule="evenodd"/><path fill="#201f2a" d="m61.99797 469.2878l0 9.1397705l-0.028553009 0.35849l-0.085392 0.32858276l-0.14275742 0.29867554l-0.19960022 0.2388916l-0.22815323 0.2090149l-0.25696564 0.1494751l-0.31354523 0.089416504l-0.34235764 0.029907227l-0.31380844 -0.029907227l-0.28525162 -0.089416504l-0.25670624 -0.11956787l-0.19960022 -0.17910767l-0.22841263 -0.17938232l-0.14249802 -0.2090149l-2.2820396 2.4789429l0.19960022 0.2690735l0.22815323 0.20898438l0.25696564 0.2388916l0.28525543 0.17910767l0.3135414 0.20928955l0.37091064 0.17910767l0.34236145 0.17907715l0.37090683 0.11959839l0.37065125 0.08969116l0.39945984 0.059783936l0.42775345 0.059539795l0.42801285 0l0.54195786 -0.029907227l0.51340866 -0.059509277l0.48485565 -0.11959839l0.45656204 -0.14920044l0.42775345 -0.20928955l0.39946365 -0.2388916l0.37064743 -0.26879883l0.37090683 -0.35845947l0.31381226 -0.35849l0.28525543 -0.41799927l0.22814941 -0.41827393l0.19960022 -0.4479065l0.1427536 -0.47805786l0.114212036 -0.5076904l0.05683899 -0.53759766l0.028549194 -0.56747437l0 -9.1397705z" fill-rule="evenodd"/><path fill="#201f2a" d="m73.63633 473.17078l1.1981201 3.972351l-2.453354 0l1.1695786 -3.972351zm-2.0253372 -3.882965l-5.0203857 13.918793l3.879364 0l0.9414215 -2.9868774l4.3642197 0l0.9699707 2.9868774l3.879364 0l-5.0203857 -13.918793z" fill-rule="evenodd"/><path fill="#201f2a" d="m79.027626 469.2878l4.7351227 13.918793l3.993576 0l4.7351303 -13.918793l-3.879364 0l-2.8239975 9.737152l-0.057106018 0l-2.8239975 -9.737152z" fill-rule="evenodd"/><path fill="#201f2a" d="m97.93959 473.17078l1.1981277 3.972351l-2.4530945 0l1.1981277 -3.972351zm-2.0250778 -3.882965l-5.020645 13.918793l3.879631 0l0.9411545 -2.9868774l4.364479 0l0.9697113 2.9868774l3.879631 0l-5.020653 -13.918793z" fill-rule="evenodd"/><path fill="#201f2a" d="m111.71543 469.70767l0 13.918793l3.5941162 0l0 -8.273621l3.708313 4.8687134l3.7083206 -4.8687134l0 8.273621l3.5941086 0l0 -13.918793l-3.223465 0l-4.078964 5.3464966l-4.0792236 -5.3464966z" fill-rule="evenodd"/><path fill="#201f2a" d="m133.73692 476.3685l0.2566986 0.08969116l0.2566986 0.11932373l0.22816467 0.1494751l0.17103577 0.20898438l0.17131042 0.2090149l0.14250183 0.2388916l0.08566284 0.26879883l-3.223465 0l0.11419678 -0.26879883l0.11395264 -0.2388916l0.17131042 -0.2090149l0.19960022 -0.20898438l0.22814941 -0.1494751l0.22840881 -0.11932373l0.28526306 -0.08969116zm-0.28526306 -2.688202l-0.5136566 0.029907227l-0.48486328 0.059783936l-0.45629883 0.11932373l-0.4565735 0.1494751l-0.42774963 0.20898438l-0.39945984 0.26879883l-0.39920044 0.29870605l-0.37091064 0.35845947l-0.34236145 0.38839722l-0.2852478 0.38809204l-0.25671387 0.41827393l-0.19958496 0.4479065l-0.14276123 0.44818115l-0.11395264 0.4777832l-0.05709839 0.47805786l-0.028549194 0.53759766l0.028549194 0.5076904l0.05709839 0.5076904l0.11395264 0.47805786l0.17131042 0.4479065l0.19960022 0.44815063l0.2566986 0.41799927l0.2852478 0.38839722l0.34236145 0.3883667l0.37091064 0.35821533l0.39920044 0.29867554l0.4280243 0.2388916l0.45629883 0.20928955l0.45629883 0.14920044l0.5136719 0.11959839l0.5134125 0.08969116l0.91259766 0l0.37091064 -0.029907227l0.37091064 -0.059783936l0.34236145 -0.08969116l0.37065125 -0.08969116l0.313797 -0.11932373l0.31381226 -0.1494751l0.31381226 -0.14920044l0.2852478 -0.1494751l0.2566986 -0.17910767l0.25671387 -0.17910767l0.22814941 -0.17938232l-1.2549744 -2.210144l-0.22814941 0.2388916l-0.37091064 0.23892212l-0.39945984 0.17907715l-0.42774963 0.14950562l-0.39945984 0.08969116l-0.85575867 0l-0.37065125 -0.08969116l-0.34236145 -0.14950562l-0.31381226 -0.17907715l-0.2566986 -0.23892212l-0.19960022 -0.2388916l-0.114212036 -0.2388916l-0.08564758 -0.23916626l6.361267 0l0.028549194 -0.32858276l0.05683899 -0.77648926l0 -0.5076904l-0.08538818 -0.47805786l-0.08566284 -0.4777832l-0.17103577 -0.4479065l-0.19987488 -0.44818115l-0.22814941 -0.3883667l-0.2852478 -0.38809204l-0.34236145 -0.38839722l-0.34210205 -0.32858276l-0.39945984 -0.29867554l-0.37091064 -0.23892212l-0.42774963 -0.20898438l-0.45655823 -0.1494751l-0.4563141 -0.11932373l-0.48484802 -0.059783936l-0.48486328 -0.029907227z" fill-rule="evenodd"/><path fill="#201f2a" d="m144.7474 476.3685l0.2566986 0.08969116l0.256958 0.11932373l0.22816467 0.1494751l0.19960022 0.20898438l0.14274597 0.2090149l0.14250183 0.2388916l0.08566284 0.26879883l-3.223465 0l0.11419678 -0.26879883l0.11395264 -0.2388916l0.17131042 -0.2090149l0.19960022 -0.20898438l0.22814941 -0.1494751l0.22814941 -0.11932373l0.28526306 -0.08969116zm-0.28526306 -2.688202l-0.5133972 0.029907227l-0.48486328 0.059783936l-0.45629883 0.11932373l-0.4565735 0.1494751l-0.42774963 0.20898438l-0.39945984 0.26879883l-0.39920044 0.29870605l-0.37091064 0.35845947l-0.31381226 0.38839722l-0.313797 0.38809204l-0.22814941 0.41827393l-0.22814941 0.4479065l-0.14276123 0.44818115l-0.11395264 0.4777832l-0.05709839 0.47805786l-0.028549194 0.53759766l0.028549194 0.5076904l0.05709839 0.5076904l0.11395264 0.47805786l0.17131042 0.4479065l0.19960022 0.44815063l0.2566986 0.41799927l0.2852478 0.38839722l0.34236145 0.3883667l0.37065125 0.35821533l0.42800903 0.29867554l0.39920044 0.2388916l0.4565735 0.20928955l0.48484802 0.14920044l0.48486328 0.11959839l0.5136719 0.08969116l0.91259766 0l0.37091064 -0.029907227l0.37091064 -0.059783936l0.37065125 -0.08969116l0.34236145 -0.08969116l0.313797 -0.11932373l0.31381226 -0.1494751l0.31381226 -0.14920044l0.2852478 -0.1494751l0.2566986 -0.17910767l0.25671387 -0.17910767l0.22814941 -0.17938232l-1.2549591 -2.210144l-0.22842407 0.2388916l-0.37065125 0.23892212l-0.39945984 0.17907715l-0.42774963 0.14950562l-0.39945984 0.08969116l-0.85575867 0l-0.37065125 -0.08969116l-0.34236145 -0.14950562l-0.31381226 -0.17907715l-0.2566986 -0.23892212l-0.19985962 -0.2388916l-0.11395264 -0.2388916l-0.08564758 -0.23916626l6.361267 0l0.05683899 -0.32858276l0.05709839 -0.77648926l-0.028549194 -0.5076904l-0.08538818 -0.47805786l-0.08566284 -0.4777832l-0.17131042 -0.4479065l-0.19960022 -0.44818115l-0.22814941 -0.3883667l-0.2852478 -0.38809204l-0.34236145 -0.38839722l-0.34236145 -0.32858276l-0.37065125 -0.29867554l-0.39945984 -0.23892212l-0.42774963 -0.20898438l-0.45655823 -0.1494751l-0.4563141 -0.11932373l-0.48484802 -0.059783936l-0.48512268 -0.029907227z" fill-rule="evenodd"/><path fill="#201f2a" d="m152.13548 471.0818l0 1.7921448l0 0.2388916l-0.05709839 0.2388916l-0.11395264 0.2090149l-0.14276123 0.17938232l-0.17103577 0.14920044l-0.19960022 0.08969116l-0.19987488 0.059783936l-0.22814941 0.029907227l-0.57051086 0l0 3.1958923l1.3120728 0l0 2.777588l0.028549194 0.41827393l0.028549194 0.41799927l0.08566284 0.38839722l0.08564758 0.35849l0.11395264 0.32858276l0.17131042 0.32858276l0.17105103 0.26879883l0.19960022 0.2687683l0.2566986 0.2388916l0.2566986 0.2090149l0.25697327 0.1494751l0.3135376 0.14920044l0.31381226 0.11959839l0.313797 0.059783936l0.37091064 0.059814453l0.7130127 0l0.34236145 -0.029907227l0.34236145 -0.029907227l0.313797 -0.059783936l0.54196167 -0.17910767l0 -3.0765686l-0.14276123 0.059783936l-0.11393738 0.029907227l-0.34236145 0.089416504l-0.34236145 0.029876709l-0.2566986 -0.029876709l-0.19960022 -0.059539795l-0.17131042 -0.08969116l-0.17105103 -0.11956787l-0.114212036 -0.17910767l-0.05683899 -0.2090149l-0.05709839 -0.23916626l-0.028549194 -0.2687683l0 -2.1802368l1.7971802 0l0 -3.1958923l-1.7971802 0l0 -2.986908z" fill-rule="evenodd"/><path fill="#201f2a" d="m160.69313 469.28967l-0.37091064 0.029876709l-0.19960022 0.059783936l-0.17131042 0.059539795l-0.14248657 0.059783936l-0.14276123 0.08969116l-0.14250183 0.11932373l-0.14276123 0.11956787l-0.11393738 0.11959839l-0.114212036 0.14920044l-0.08564758 0.1494751l-0.05683899 0.14920044l-0.057113647 0.14950562l-0.028549194 0.17907715l-0.028549194 0.35849l0.028549194 0.38812256l0.08566284 0.32858276l0.05683899 0.1494751l0.08564758 0.14920044l0.22814941 0.29870605l0.14276123 0.089660645l0.14250183 0.11959839l0.14276123 0.089416504l0.14248657 0.059783936l0.37091064 0.08969116l0.37091064 0.029907227l0.37065125 -0.029907227l0.34236145 -0.08969116l0.17131042 -0.059783936l0.14250183 -0.089416504l0.14274597 -0.11959839l0.11395264 -0.089660645l0.114212036 -0.14923096l0.11393738 -0.1494751l0.08566284 -0.14920044l0.08564758 -0.1494751l0.05709839 -0.14923096l0.028289795 -0.1793518l0.028564453 -0.38812256l-0.028564453 -0.35849l-0.028289795 -0.17907715l-0.05709839 -0.14950562l-0.08564758 -0.14920044l-0.08566284 -0.1494751l-0.11393738 -0.14920044l-0.114212036 -0.11959839l-0.11395264 -0.11956787l-0.14274597 -0.11932373l-0.14250183 -0.08969116l-0.17131042 -0.059783936l-0.17105103 -0.059539795l-0.17131042 -0.059783936l-0.37065125 -0.029876709zm-1.6261292 4.5697327l0 9.767059l3.223465 0l0 -9.767059z" fill-rule="evenodd"/><path fill="#201f2a" d="m170.36299 473.6803l-0.2852478 0.059814453l-0.2566986 0.059783936l-0.25671387 0.059509277l-0.2566986 0.11959839l-0.2566986 0.14920044l-0.22816467 0.1494751l-0.22814941 0.17910767l-0.17131042 0.20925903l-0.17105103 0.17910767l-0.14274597 0.2090149l-0.11395264 0.20925903l-0.08564758 0l0 -1.4040222l-3.2232056 0l0 9.767059l3.2232056 0l0 -4.988037l0.028549194 -0.3883667l0.05709839 -0.3283081l0.14250183 -0.29870605l0.17131042 -0.2690735l0.22814941 -0.20898438l0.2852478 -0.17910767l0.28526306 -0.08969116l0.31381226 -0.029876709l0.2852478 0.029876709l0.2566986 0.08969116l0.19960022 0.14920044l0.19960022 0.17938232l0.17131042 0.2388916l0.11395264 0.26879883l0.08564758 0.29870605l0.028549194 0.35845947l0 5.167145l3.2232056 0l0 -5.884094l-0.028289795 -0.4479065l-0.028549194 -0.44815063l-0.08566284 -0.38812256l-0.11419678 -0.3883667l-0.11395264 -0.35849l-0.17131042 -0.35849l-0.17105103 -0.29867554l-0.22814941 -0.29870605l-0.22814941 -0.2388916l-0.2566986 -0.2388916l-0.28526306 -0.17910767l-0.2852478 -0.1494751l-0.31381226 -0.11959839l-0.313797 -0.08938599l-0.34236145 -0.059814453z" fill-rule="evenodd"/><path fill="#201f2a" d="m180.71783 476.6672l0.34210205 0.029876709l0.34236145 0.089416504l0.2852478 0.1494751l0.2566986 0.23892212l0.19960022 0.2687683l0.17131042 0.29870605l0.08566284 0.32858276l0.028289795 0.3883667l-0.028289795 0.35821533l-0.08566284 0.32858276l-0.17131042 0.29870605l-0.19960022 0.2687683l-0.2566986 0.23916626l-0.2852478 0.14923096l-0.34236145 0.08969116l-0.34210205 0.029876709l-0.34236145 -0.029876709l-0.313797 -0.08969116l-0.28526306 -0.14923096l-0.2566986 -0.23916626l-0.22814941 -0.2687683l-0.14276123 -0.29870605l-0.11395264 -0.32858276l-0.028549194 -0.35821533l0.028549194 -0.3883667l0.11395264 -0.32858276l0.14276123 -0.29870605l0.22814941 -0.2687683l0.2566986 -0.23892212l0.28526306 -0.1494751l0.313797 -0.089416504l0.34236145 -0.029876709zm-1.1410217 -2.986908l-0.39945984 0.029907227l-0.37091064 0.059783936l-0.37065125 0.089416504l-0.34236145 0.1494751l-0.3423462 0.17910767l-0.31381226 0.2388916l-0.31381226 0.2690735l-0.2852478 0.2984314l-0.28526306 0.35845947l-0.22814941 0.35849l-0.19960022 0.41827393l-0.14276123 0.41799927l-0.14248657 0.41827393l-0.08566284 0.4777832l-0.05709839 0.47808838l0 0.53756714l0 0.5076904l0.05709839 0.47781372l0.08566284 0.47805786l0.14248657 0.4479065l0.14276123 0.41827393l0.19960022 0.38809204l0.22814941 0.35849l0.28526306 0.35845947l0.2852478 0.29870605l0.31381226 0.26879883l0.31381226 0.2388916l0.3423462 0.17938232l0.34236145 0.14920044l0.37065125 0.11956787l0.37091064 0.059814453l0.7130127 0l0.2852478 -0.029907227l0.28526306 -0.059783936l0.2852478 -0.08969116l0.25697327 -0.11932373l0.2566986 -0.1494751l0.22814941 -0.14920044l0.22814941 -0.17938232l0.34236145 -0.38809204l0.2852478 -0.41827393l0.08540344 0l0 0.8960571l0 0.2388916l-0.028289795 0.2388916l-0.057113647 0.20928955l-0.08564758 0.20898438l-0.08566284 0.2090149l-0.11393738 0.17938232l-0.114212036 0.17907715l-0.14248657 0.17910767l-0.17131042 0.14950562l-0.17105103 0.11929321l-0.19960022 0.11959839l-0.19985962 0.08969116l-0.19960022 0.059509277l-0.22814941 0.059783936l-0.22816467 0.029907227l-0.2566986 0.029876709l-0.48510742 -0.059783936l-0.22816467 -0.029876709l-0.22814941 -0.059539795l-0.19960022 -0.059783936l-0.19985962 -0.11959839l-0.17105103 -0.08969116l-0.19960022 -0.11929321l-0.17131042 -0.1494751l-0.14248657 -0.11932373l-0.14276123 -0.1494751l-0.11395264 -0.14920044l-1.882843 2.0908203l0.19987488 0.26879883l0.2566986 0.2388916l0.2852478 0.2388916l0.28526306 0.2388916l0.37065125 0.23916626l0.37091064 0.2090149l0.39945984 0.14920044l0.39920044 0.1494751l0.42800903 0.11932373l0.42774963 0.059783936l0.4565735 0.059783936l1.0268097 0l0.54196167 -0.08969116l0.48484802 -0.11929321l0.48512268 -0.17938232l0.45629883 -0.2090149l0.45629883 -0.2687683l0.4280243 -0.29870605l0.37065125 -0.3883667l0.3708954 -0.38812256l0.31381226 -0.41827393l0.2566986 -0.41827393l0.22816467 -0.44787598l0.17131042 -0.47781372l0.11393738 -0.5079651l0.05709839 -0.5076904l0.028564453 -0.53756714l0 -8.661987l-3.223465 0l0 1.4040222l-0.08540344 0l-0.2852478 -0.41827393l-0.34236145 -0.3883667l-0.22814941 -0.17910767l-0.22814941 -0.1494751l-0.2566986 -0.14920044l-0.25697327 -0.11959839l-0.2852478 -0.059509277l-0.28526306 -0.059783936l-0.2852478 -0.059814453z" fill-rule="evenodd"/><path fill="#201f2a" d="m198.36682 472.7836l0.28526306 0.029907227l0.2852478 0.059783936l0.2566986 0.14950562l0.22816467 0.20898438l0.19985962 0.2388916l0.14248657 0.2388916l0.08566284 0.26879883l0.028549194 0.29870605l-0.028549194 0.2687683l-0.08566284 0.2690735l-0.14248657 0.26879883l-0.19985962 0.2388916l-0.22816467 0.17910767l-0.2566986 0.1494751l-0.2852478 0.089416504l-2.4816437 0l0 -2.9570007zm-5.790497 -3.4048767l0 13.918793l3.5941162 0l0 -4.1517334l2.3959808 0l0.5136719 -0.029907227l0.5134125 -0.059783936l0.48484802 -0.11932373l0.45629883 -0.1494751l0.4280243 -0.17910767l0.39945984 -0.23916626l0.39920044 -0.2984314l0.3423462 -0.29867554l0.31381226 -0.35849l0.28526306 -0.3883667l0.2566986 -0.41827393l0.17105103 -0.41799927l0.17131042 -0.44818115l0.11393738 -0.4777832l0.057113647 -0.4777832l0.028549194 -0.5079651l-0.028549194 -0.53759766l-0.057113647 -0.4777832l-0.11393738 -0.47808838l-0.17131042 -0.44787598l-0.17105103 -0.41827393l-0.2566986 -0.38812256l-0.28526306 -0.3883667l-0.31381226 -0.35849l-0.3423462 -0.32858276l-0.39920044 -0.26879883l-0.39945984 -0.2388916l-0.4280243 -0.20898438l-0.45629883 -0.1494751l-0.48484802 -0.11932373l-0.5134125 -0.059783936l-0.5136719 -0.029907227z" fill-rule="evenodd"/><path fill="#201f2a" d="m210.23334 476.45758l0.17103577 0.029876709l0.14276123 0.059814453l0.17105103 0.059509277l0.14276123 0.08969116l0.17105103 0.08969116l0.14276123 0.11929321l0.11393738 0.14950562l0.14276123 0.14920044l0.11393738 0.1494751l0.08566284 0.14920044l0.08564758 0.17938232l0.057113647 0.17910767l0.028289795 0.17938232l0.028549194 0.20898438l0.028549194 0.17910767l-0.028549194 0.20928955l-0.028549194 0.17910767l-0.028289795 0.20898438l-0.057113647 0.17938232l-0.08564758 0.17910767l-0.08566284 0.1494751l-0.11393738 0.14920044l-0.14276123 0.17910767l-0.2566986 0.23916626l-0.17105103 0.089416504l-0.14276123 0.08969116l-0.17105103 0.059783936l-0.14276123 0.059814453l-0.17103577 0.02960205l-0.37091064 0l-0.17105103 -0.02960205l-0.17105103 -0.059814453l-0.14276123 -0.059783936l-0.17105103 -0.08969116l-0.14276123 -0.089416504l-0.2852478 -0.23916626l-0.22814941 -0.3283081l-0.114212036 -0.1494751l-0.05683899 -0.17910767l-0.05709839 -0.17938232l-0.057113647 -0.20898438l-0.028549194 -0.17910767l0 -0.20928955l0 -0.17910767l0.028549194 -0.20898438l0.057113647 -0.17938232l0.05709839 -0.17910767l0.05683899 -0.17938232l0.114212036 -0.14920044l0.08564758 -0.1494751l0.14250183 -0.14920044l0.2852478 -0.26879883l0.14276123 -0.08969116l0.17105103 -0.08969116l0.14276123 -0.059509277l0.17105103 -0.059814453l0.17105103 -0.029876709zm-0.7130127 -3.0765991l-0.5136719 0.08969116l-0.5133972 0.11959839l-0.4563141 0.14920044l-0.45655823 0.20928955l-0.42774963 0.2687683l-0.3994751 0.29870605l-0.370636 0.3283081l-0.34236145 0.3883667l-0.28526306 0.38839722l-0.2566986 0.41799927l-0.19960022 0.44815063l-0.17131042 0.4479065l-0.11393738 0.47805786l-0.057113647 0.5076904l-0.028549194 0.5076904l0.028549194 0.53759766l0.057113647 0.47805786l0.11393738 0.4777832l0.17131042 0.47808838l0.19960022 0.41799927l0.2566986 0.44815063l0.28526306 0.38812256l0.34236145 0.3883667l0.370636 0.32858276l0.3994751 0.29870605l0.42774963 0.2687683l0.45655823 0.2090149l0.4563141 0.1494751l0.5133972 0.11932373l0.5136719 0.059783936l0.5134125 0.029907227l0.5419464 -0.029907227l0.5134125 -0.059783936l0.48484802 -0.11932373l0.48512268 -0.1494751l0.42774963 -0.2090149l0.42774963 -0.2687683l0.3994751 -0.29870605l0.3708954 -0.32858276l0.34236145 -0.3883667l0.31355286 -0.38812256l0.256958 -0.44815063l0.19960022 -0.41799927l0.17105103 -0.47808838l0.114212036 -0.4777832l0.05709839 -0.47805786l0.028289795 -0.53759766l-0.028289795 -0.5076904l-0.05709839 -0.5076904l-0.114212036 -0.47805786l-0.17105103 -0.4479065l-0.19960022 -0.44815063l-0.256958 -0.41799927l-0.31355286 -0.38839722l-0.34236145 -0.3883667l-0.3708954 -0.3283081l-0.3994751 -0.29870605l-0.42774963 -0.2687683l-0.42774963 -0.20928955l-0.48512268 -0.14920044l-0.48484802 -0.11959839l-0.5134125 -0.08969116z" fill-rule="evenodd"/><path fill="#201f2a" d="m218.67677 468.99036l-0.37091064 0.029876709l-0.17103577 0.059814453l-0.17105103 0.029876709l-0.17131042 0.08969116l-0.14250183 0.089416504l-0.14276123 0.08969116l-0.11393738 0.11959839l-0.114212036 0.14920044l-0.114212036 0.11956787l-0.08538818 0.14923096l-0.05709839 0.1494751l-0.057113647 0.17910767l-0.05709839 0.17938232l-0.028549194 0.3581848l0.028549194 0.35849l0.114212036 0.35849l0.05709839 0.14920044l0.08538818 0.1494751l0.22842407 0.26879883l0.11393738 0.11959839l0.14276123 0.11929321l0.14250183 0.059783936l0.17131042 0.08969116l0.3420868 0.089416504l0.37091064 0.029907227l0.39945984 -0.029907227l0.34210205 -0.089416504l0.14276123 -0.08969116l0.14250183 -0.059783936l0.14274597 -0.11929321l0.14250183 -0.11959839l0.114212036 -0.11959839l0.11419678 -0.14920044l0.08540344 -0.1494751l0.05709839 -0.14920044l0.05709839 -0.17938232l0.057113647 -0.17910767l0.028549194 -0.35849l-0.028549194 -0.3581848l-0.057113647 -0.17938232l-0.05709839 -0.17910767l-0.05709839 -0.1494751l-0.08540344 -0.14923096l-0.11419678 -0.11956787l-0.114212036 -0.14920044l-0.14250183 -0.11959839l-0.14274597 -0.08969116l-0.14250183 -0.089416504l-0.14276123 -0.08969116l-0.17105103 -0.029876709l-0.17105103 -0.059814453l-0.39945984 -0.029876709zm-1.5973206 4.5700073l0 9.737152l3.2232056 0l0 -9.737152z" fill-rule="evenodd"/><path fill="#201f2a" d="m228.37546 473.38098l-0.28526306 0.029907227l-0.2852478 0.059783936l-0.25697327 0.08969116l-0.2566986 0.11932373l-0.22814941 0.1494751l-0.22814941 0.14920044l-0.22816467 0.17938232l-0.19960022 0.2090149l-0.14274597 0.17907715l-0.14250183 0.20928955l-0.114212036 0.20898438l-0.11419678 0l0 -1.4037476l-3.2232056 0l0 9.737152l3.2232056 0l0 -4.95813l0.028549194 -0.3883667l0.08564758 -0.35849l0.14250183 -0.29867554l0.17131042 -0.2388916l0.22814941 -0.23892212l0.2566986 -0.1494751l0.28526306 -0.089416504l0.34236145 -0.029876709l0.2566986 0.029876709l0.2566986 0.089416504l0.22814941 0.11959839l0.19987488 0.20898438l0.17103577 0.2090149l0.114212036 0.2690735l0.05683899 0.3283081l0.028549194 0.32858276l0 5.167389l3.223465 0l0 -5.854187l0 -0.44818115l-0.05709839 -0.44787598l-0.05709839 -0.41827393l-0.11395264 -0.38839722l-0.114212036 -0.3581848l-0.17103577 -0.32861328l-0.19987488 -0.29867554l-0.19960022 -0.29867554l-0.2566986 -0.23892212l-0.2566986 -0.23916626l-0.25671387 -0.17910767l-0.313797 -0.14920044l-0.28526306 -0.11956787l-0.3423462 -0.08969116l-0.34236145 -0.059814453z" fill-rule="evenodd"/><path fill="#201f2a" d="m235.13593 470.78247l0 1.7921448l-0.028564453 0.2388916l-0.05709839 0.23916626l-0.114212036 0.2090149l-0.14248657 0.17910767l-0.17131042 0.1494751l-0.19960022 0.089416504l-0.19960022 0.059783936l-0.22814941 0.029907227l-0.57051086 0l0 3.165985l1.3120575 0l0 2.8078003l0.028564453 0.41799927l0.028549194 0.41827393l0.08538818 0.3883667l0.08566284 0.35821533l0.11419678 0.32858276l0.17105103 0.29867554l0.17131042 0.29870605l0.22814941 0.2687683l0.22814941 0.23919678l0.25671387 0.17907715l0.2566986 0.17910767l0.31381226 0.14950562l0.313797 0.089660645l0.31381226 0.089416504l0.37065125 0.029907227l0.37091064 0.029907227l0.34236145 0l0.3423462 -0.029907227l0.34210205 -0.059783936l0.31381226 -0.059539795l0.5419464 -0.1494751l0 -3.0765686l-0.11393738 0.059783936l-0.14276123 0.029907227l-0.34210205 0.08969116l-0.3423462 0.029876709l-0.25671387 -0.029876709l-0.19985962 -0.059814453l-0.17105103 -0.089660645l-0.14274597 -0.11932373l-0.11395264 -0.17938232l-0.08564758 -0.20898438l-0.057113647 -0.23892212l-0.028549194 -0.2687683l0 -2.2104187l1.8257446 0l0 -3.165985l-1.8257446 0l0 -2.986908z" fill-rule="evenodd"/><path fill="#fb5235" d="m246.54587 477.53275l-0.28526306 0.029907227l-0.2852478 0.029876709l-0.28526306 0.059783936l-0.2566986 0.11959839l-0.2566986 0.11932373l-0.22816467 0.1494751l-0.22840881 0.17910767l-0.19960022 0.17910767l-0.17105103 0.20925903l-0.17131042 0.2388916l-0.14248657 0.2388916l-0.114212036 0.26879883l-0.11395264 0.26879883l-0.05709839 0.29867554l-0.028549194 0.29870605l-0.028549194 0.29867554l0.028549194 0.29870605l0.028549194 0.29867554l0.05709839 0.29870605l0.11395264 0.2687683l0.114212036 0.23892212l0.14248657 0.2687683l0.17131042 0.20928955l0.17105103 0.20898438l0.19960022 0.2090149l0.22840881 0.17938232l0.22816467 0.14920044l0.2566986 0.11959839l0.2566986 0.089660645l0.28526306 0.089416504l0.2852478 0.029907227l0.28526306 0.029907227l0.2852478 -0.029907227l0.28526306 -0.029907227l0.2852478 -0.089416504l0.2566986 -0.089660645l0.22816467 -0.11959839l0.2566986 -0.14920044l0.19985962 -0.17938232l0.19960022 -0.2090149l0.19960022 -0.20898438l0.17131042 -0.20928955l0.14250183 -0.2687683l0.11419678 -0.23892212l0.08540344 -0.2687683l0.08564758 -0.29870605l0.028549194 -0.29867554l0.028549194 -0.29870605l-0.028549194 -0.29867554l-0.028549194 -0.29870605l-0.08564758 -0.29867554l-0.08540344 -0.26879883l-0.11419678 -0.26879883l-0.14250183 -0.2388916l-0.17131042 -0.2388916l-0.19960022 -0.20925903l-0.19960022 -0.17910767l-0.19985962 -0.17910767l-0.2566986 -0.1494751l-0.22816467 -0.11932373l-0.2566986 -0.11959839l-0.2852478 -0.059783936l-0.28526306 -0.029876709l-0.2852478 -0.029907227z" fill-rule="evenodd"/><path fill="#f0f0f0" d="m786.86633 219.2559l-1.6865234 0.37628174l-1.6865234 0.5610504l-1.501709 0.9373169l-1.1254883 1.1254578l-0.9373169 1.3135986l-0.56103516 1.6865082l-0.18811035 1.6865082l0 0.9406891l0.18811035 0.749176l0.56103516 1.4983826l0.74920654 1.1254578l0.9406738 0.9373169l1.1221313 0.93733215l1.3135986 0.9373169l0.9373169 0.56440735l1.1254272 0.5610504l0.74920654 0.56440735l0.37628174 0.7491913l0 0.5610504l-0.18817139 0.56440735l-0.56103516 0.37290955l-1.501709 0l-0.9373169 -0.37290955l-0.74920654 -0.56440735l-0.9373169 -1.1254578l-0.37628174 -0.5610504l-5.435791 3.5611572l0.18475342 0.37626648l0.7525635 1.1254578l1.498352 1.3102417l0.9373169 0.7525482l1.3135986 0.749176l1.4984131 0.7491913l1.6898193 0.37626648l2.0628052 0.3729248l1.8746338 0.18812561l1.6865234 -0.37290955l1.6865234 -0.56440735l1.501709 -0.9373169l1.1254883 -1.125473l0.7491455 -1.1254578l0.5610962 -1.4983673l0.18811035 -1.5017395l0 -1.4983673l-0.3729248 -1.3135986l-0.5643921 -1.1254578l-0.9373169 -0.9373169l-0.74920654 -0.93733215l-2.0628052 -1.4983673l-1.6864624 -1.1254578l-1.3135986 -0.9373169l-0.37628174 -0.5610504l0 -0.37628174l0.18811035 -0.749176l0.74920654 -0.37628174l0.7525635 -0.37626648l1.1220703 0.18812561l0.9373169 0.37628174l1.1254883 0.749176l1.3135986 1.5017395l0.56103516 0.7491913l5.439148 -3.3763885l-0.37628174 -0.37290955l-0.9373169 -1.5017242l-1.6865234 -1.4983826l-1.1254272 -0.9373169l-1.498352 -0.93733215l-1.50177 -0.75253296l-1.6865234 -0.3729248l-2.2509155 -0.56440735z" fill-rule="evenodd"/><path fill="#f0f0f0" d="m756.1161 201.44342l-14.436096 19.314224l6.1882935 4.686615l5.0629272 -6.749405l5.8120728 4.3103485l-5.062866 6.7527466l6.1882935 4.686615l14.436157 -19.314224l-6.1883545 -4.686615l-5.2510376 6.9375305l-5.8120728 -4.31369l5.2510376 -7.1223145l-6.1883545 -4.501831z" fill-rule="evenodd"/><path fill="#f0f0f0" d="m735.67975 189.07008l1.6865234 3.0001068l-6.1883545 1.4983673l4.501831 -4.498474zm3.7493286 -15.000519l-17.063354 19.310852l4.1256104 7.501953l25.499207 -3.749298l-3.937439 -7.313797l-4.6866455 0.9373169l-3.3729858 -6.0002136l3.3729858 -3.3730164l-3.937378 -7.313797z" fill-rule="evenodd"/><path fill="#f0f0f0" d="m722.3657 156.25706l0.5644531 0.37626648l0.37286377 0.5610504l0.18817139 0.7491913l0.37628174 3.5645142l-3.5645142 0.37290955l-0.18481445 -3.5611572l0 -0.9373169l0.18481445 -0.56440735l0.5643921 -0.37290955l0.74920654 -0.18814087zm14.063232 -10.125778l-8.062988 5.439163l-0.3729248 -0.37626648l-0.7525635 -0.7491913l-1.498352 -1.1254578l-0.9373169 -0.37628174l-1.1254883 -0.37290955l-1.3135986 -0.18814087l-1.498352 0l-1.6865234 0.37628174l-1.6898804 0.5610504l-1.3101807 0.9373169l-1.1254883 1.3135986l-1.1254883 1.4983673l-0.5643921 1.5017395l-0.18475342 1.874649l0 1.8746338l0.9373169 12.000427l24.185608 -2.2509155l-0.74920654 -7.686722l-6.7493896 0.5610504l-0.37628174 -2.4356995l6.564636 -4.1255646l-0.5643921 -8.251129z" fill-rule="evenodd"/><path fill="#f0f0f0" d="m716.55365 125.69496l-1.8746338 7.686722l23.436462 5.623932l1.8779907 -7.498581l-23.43982 -5.8120728z" fill-rule="evenodd"/><path fill="#f0f0f0" d="m735.1187 89.50557l-4.3137207 6.564621l9.937683 6.373123l-14.812439 1.313591l-3.7492676 5.439163l20.248169 13.310654l4.3137207 -6.37648l-9.749512 -6.561264l14.812378 -1.1254578l3.5611572 -5.6239395l-20.248169 -13.314011z" fill-rule="evenodd"/><path fill="#f0f0f0" d="m766.2419 67.194595l-1.4984131 0.18814087l-1.6898804 0.37290955l-1.8746338 0.56440735l-1.6864624 0.9373245l-1.1254883 0.74918365l-1.1254883 0.9373245l-0.9373169 0.7491913l-0.9373169 1.1254578l-0.7491455 0.9373245l-0.5644531 1.1254578l-0.56103516 1.313591l-0.37628174 1.3135986l-0.3729248 1.3102341l0 1.3135986l-0.18811035 1.1254578l0.18811035 1.3102341l0.18817139 1.1254654l0.3729248 1.313591l0.37628174 1.1254654l0.7491455 1.1254578l0.56103516 1.1254578l0.9373779 0.9373245l0.75250244 0.74918365l0.9373169 0.9373245l1.1254883 0.5610504l1.1254272 0.56440735l1.1221313 0.5610504l1.3135986 0.18813324l1.3135986 0.3762741l2.6238403 0l1.3135986 -0.18813324l1.3101807 -0.18814087l1.3135986 -0.37626648l1.3135986 -0.5610504l1.1254883 -0.7491913l1.6865234 -1.1254578l1.498352 -1.3135986l1.1254883 -1.313591l0.9373169 -1.1221008l0.5643921 -1.3135986l0.56103516 -1.1254578l0.5643921 -1.6865082l0.18481445 -0.74918365l-4.874756 -8.251129l-9.749512 5.8120728l2.2509155 3.7492905l3.000122 -1.874649l0.9373169 1.874649l0 0.3762741l-0.74920654 0.9373245l-0.75250244 0.74918365l-0.74920654 0.3762741l-0.9373169 0.5610504l-1.1254883 0.3762741l-1.1254272 0l-1.3102417 -0.18814087l-0.9373169 -0.3762741l-1.1254883 -0.5610504l-0.7491455 -0.74918365l-0.7525635 -0.9373245l-0.56103516 -1.1254578l-0.18817139 -1.1254578l0 -1.1254578l0.18817139 -1.1254654l0.3762207 -1.1254578l0.5610962 -0.9373245l0.9373169 -0.9373169l0.9373169 -0.7491913l0.9373169 -0.3762741l0.9373169 -0.37290955l1.6865234 -0.18814087l1.3135986 0.18814087l1.1254272 0.18813324l0.37628174 0l1.4984131 -6.5646133l-0.5610962 -0.18814087l-1.8746338 -0.37290955l-2.4390259 -0.18814087z" fill-rule="evenodd"/><path fill="#f0f0f0" d="m809.7417 56.695908l-7.874878 0.18478012l0.5610962 24.188976l7.878174 0l-0.5643921 -24.373756z" fill-rule="evenodd"/><path fill="#f0f0f0" d="m830.74243 59.507877l-1.8746338 0.18813705l-1.6898804 0.5610504l-1.3102417 0.74918365l-1.3135986 1.1254616l-0.7491455 1.1254578l-0.5644531 1.4983711l-0.3729248 1.5017319l0 1.4983749l0.3729248 1.3135986l0.5644531 1.1254578l0.7491455 0.9373245l0.74920654 0.9373169l1.8746338 1.5017395l1.8779907 1.3102341l1.3102417 0.9373245l0.18817139 0.56440735l0.18811035 0.37290955l-0.37628174 0.7525482l-0.7491455 0.37291718l-0.74920654 0.18813324l-1.1254883 0l-0.9373169 -0.5610504l-1.1254272 -0.7525482l-1.3135986 -1.4983673l-0.3729248 -0.7491913l-5.6273193 3.184883l0.18817139 0.3762741l1.1254272 1.4983749l1.50177 1.6898651l1.1220703 0.9373245l1.3135986 0.74918365l1.6865234 0.9373245l1.6898804 0.56440735l2.0627441 0.37291718l2.0628052 0.18813324l1.8746338 -0.18813324l1.6865234 -0.5610504l1.498352 -0.9373245l1.1254883 -1.1254578l0.9373169 -1.3135986l0.7525635 -1.4983673l0.18475342 -1.6898727l0 -0.9373245l0 -0.74918365l-0.56103516 -1.4983749l-0.74920654 -1.313591l-0.9373169 -0.9373245l-1.1254883 -0.9373245l-1.1254272 -0.9373245l-1.1254883 -0.56440735l-0.9373169 -0.74918365l-0.7491455 -0.5610504l-0.37628174 -0.56440735l0 -0.5610504l0.18811035 -0.564415l0.56103516 -0.37290955l0.7525635 -0.18814087l0.9373169 0.18814087l0.74920654 0.37290955l0.74920654 0.564415l0.9373169 1.1254578l0.37628174 0.5610504l5.6239014 -3.18824l-0.3729248 -0.5610504l-0.75250244 -1.1254654l-1.3102417 -1.313591l-0.9373169 -0.9373245l-1.3135986 -0.74918747l-1.50177 -0.74918365l-1.498352 -0.3762741l-2.0628052 -0.5610504z" fill-rule="evenodd"/><path fill="#f0f0f0" d="m869.7404 84.63081l-1.3102417 0.18814087l-1.1254272 0.18813324l-1.3135986 0.3762741l-1.1254883 0.37291718l-1.1220703 0.56440735l-0.9373169 0.74918365l-0.9406738 0.7491913l-0.9373169 0.9373169l-0.9373169 0.9373245l-0.5610962 1.1254578l-0.5643921 0.9373245l-0.56103516 1.1254578l-0.37628174 1.3135986l-0.18475342 1.3102341l0 1.3135986l0 1.3135986l0 1.3102341l0.37286377 1.313591l0.37628174 1.1254654l0.56103516 1.313591l0.5644531 1.1221008l0.7491455 1.1254578l0.9373779 1.1254654l1.3135376 1.313591l1.6865234 1.1254578l1.4984131 0.9373245l1.3135986 0.5610504l1.3135376 0.3762741l1.1254883 0.18813324l1.6865234 0.1847763l0.7491455 0l0.5644531 -6.5612564l-0.37628174 0l-0.9373169 -0.18813324l-1.50177 -0.37291718l-0.7491455 -0.3762741l-0.9373169 -0.3762741l-0.74920654 -0.5610504l-0.74920654 -0.74918365l-0.75250244 -0.9373245l-0.5610962 -1.1254578l-0.18811035 -1.1254578l0 -1.1254578l0 -1.1254654l0.37628174 -1.1254578l0.7491455 -0.9373169l0.74920654 -0.9373245l0.9373169 -0.7491913l1.1254883 -0.37626648l1.1254272 -0.37291718l1.1254883 0l1.1254272 0.18813324l1.1254883 0.37291718l0.9373169 0.74918365l0.9373169 0.7525482l0.56103516 0.74918365l0.5644531 0.9373245l0.56103516 1.6865082l0.18811035 1.3135986l-0.18811035 1.1254578l0 0.37291718l6.7493896 0.18813324l0.18811035 -0.5610504l0 -1.8746414l-0.37628174 -2.4390564l-0.37286377 -1.4983749l-0.74920654 -1.5017319l-0.9373169 -1.6865082l-1.1254883 -1.5017319l-0.9373169 -0.9373245l-1.1254272 -0.9373245l-1.1254883 -0.74918365l-1.1254272 -0.74918365l-1.1254883 -0.564415l-1.3102417 -0.37290955l-1.1254272 -0.18814087l-1.50177 -0.18813324l-1.3135986 -0.18814087z" fill-rule="evenodd"/><path fill="#f0f0f0" d="m890.74115 124.757645l-5.062866 3.5611572l-1.1220703 -3.373024l6.1849365 -0.18813324zm-19.687134 -7.3138123l2.439087 7.874855l4.874756 -0.18813324l2.2509155 6.564621l-4.1255493 2.811966l2.6237793 7.8748627l20.251587 -15.937851l-2.6271973 -8.251129l-25.687378 -0.7491913z" fill-rule="evenodd"/><path fill="#f0f0f0" d="m892.2429 157.38252l3.3729858 0.37290955l-0.37286377 3.5645142l-0.18817139 0.93733215l-0.37628174 0.5610504l-0.56103516 0.18812561l-0.74920654 0.18814087l-0.5643921 -0.18814087l-0.56103516 -0.5610504l-0.37628174 -0.56440735l0 -0.749176l0.37628174 -3.749298zm-13.125916 -9.00032l-0.7491455 7.686722l6.9375 0.7491913l-0.18811035 2.4390564l-7.313843 3.0001068l-0.7491455 8.062988l9.000305 -3.9374237l0.18811035 0.37290955l0.5610962 1.1254578l1.3135986 1.1254578l0.7491455 0.7491913l1.1254883 0.37626648l1.3135986 0.5610504l1.3102417 0.18814087l1.8746338 0l1.6898804 -0.37290955l1.498352 -0.56440735l1.3135986 -0.93733215l1.3135986 -1.3135986l0.9373169 -1.4983673l0.56103516 -1.6865082l0.37628174 -1.878006l1.1254883 -11.997055l-24.189026 -2.2509308z" fill-rule="evenodd"/><path fill="#f0f0f0" d="m874.05414 177.06966l-3.1882324 7.1256714l22.12616 9.749512l3.1882935 -6.937546l-22.12622 -9.937637z" fill-rule="evenodd"/><path fill="#f0f0f0" d="m866.7437 192.4431l-5.2510376 5.627304l8.435913 8.059631l-14.812378 -1.4983826l-4.6866455 4.686615l17.436218 16.875168l5.439148 -5.623932l-8.43927 -8.062988l14.812439 1.5017242l4.501831 -4.689972l-17.436218 -16.875168z" fill-rule="evenodd"/><path fill="#f0f0f0" d="m836.7427 216.63208l-1.3135986 0.18814087l-1.3135986 0.18476868l-1.3102417 0.18814087l-1.50177 0.56440735l-1.6864624 0.7491913l-1.6865234 1.1254578l-1.3135986 1.1254578l-1.1254883 0.9373169l-0.9373169 1.1254578l-0.56103516 1.1221008l-0.9373169 1.5017395l-0.18817139 0.749176l3.3730469 8.81218l10.502075 -3.9374237l-1.50177 -4.1255646l-3.3729858 1.3135986l-0.74920654 -1.874649l0.18475342 -0.37626648l0.9373169 -0.93733215l0.7525635 -0.5610504l0.9373169 -0.37626648l1.1254883 -0.37290955l1.1220703 0l1.1254883 0.18476868l1.1254272 0.37628174l0.9373169 0.56440735l0.9373169 0.749176l0.5644531 0.93733215l0.56103516 0.9373169l0.37628174 1.1254578l0 1.1254578l0 1.1221008l-0.37628174 1.1254578l-0.74920654 1.125473l-0.7491455 0.749176l-0.9373169 0.7525482l-1.1254883 0.5610504l-0.9373169 0.37626648l-2.6271973 0l-1.498352 -0.37626648l-0.74920654 -0.37626648l-0.37628174 -0.18478394l-2.6238403 6.1849823l0.3729248 0.37628174l1.6898804 0.5610504l2.435669 0.7525482l3.3764038 0l1.6865234 -0.37628174l1.8746338 -0.5610504l1.3135986 -0.56440735l1.3102417 -0.5610504l1.1254272 -0.7491913l0.9373169 -0.9373169l0.9373169 -0.9406891l0.7525635 -0.9373169l0.74920654 -1.1221008l0.74920654 -1.1254578l0.3762207 -1.3135986l0.3729248 -1.1254578l0.37628174 -1.3135986l0 -1.1221008l0 -1.3135834l0 -1.3135986l-0.37628174 -1.1254578l-0.3729248 -1.3102417l-0.5643921 -1.1254578l-0.56103516 -1.1254578l-0.74920654 -0.93733215l-0.7525635 -0.9373169l-0.9373169 -0.9373169l-1.1254272 -0.7491913l-0.9373169 -0.56440735l-1.3102417 -0.5610504l-1.3135986 -0.56440735l-1.1254883 -0.18814087l-1.3102417 -0.18476868l-1.3135376 -0.18814087z" fill-rule="evenodd"/><path fill="#000000" fill-opacity="0.0" d="m56.692913 239.51181l540.0 0l0 64.944885l-540.0 0z" fill-rule="evenodd"/><path fill="#242424" d="m72.30229 297.7612q-5.171875 0 -8.796879 -1.46875q-3.625 -1.46875 -6.203125 -3.90625l4.609375 -6.53125q1.828125 1.828125 4.562504 3.140625q2.734375 1.3125 6.21875 1.3125q2.28125 0 3.546875 -0.78125q1.265625 -0.78125 1.265625 -2.0q0 -1.171875 -1.421875 -1.71875q-1.40625 -0.5625 -3.53125 -1.03125q-2.125 -0.484375 -4.609375 -1.0625q-2.484375 -0.59375 -4.609379 -1.75q-2.125 -1.171875 -3.546875 -3.140625q-1.421875 -1.984375 -1.421875 -5.234375q0 -2.125 0.875 -4.0625q0.890625 -1.953125 2.609375 -3.421875q1.734375 -1.46875 4.234379 -2.359375q2.515625 -0.890625 5.75 -0.890625q8.265625 0 13.734375 4.71875l-4.765625 6.21875q-2.125 -1.765625 -4.734375 -2.625q-2.609375 -0.859375 -5.140625 -0.859375q-1.921875 0 -2.78125 0.6875q-0.859375 0.671875 -0.859375 1.734375q0 1.0625 1.40625 1.625q1.421875 0.5625 3.546875 1.046875q2.125 0.46875 4.578125 1.078125q2.46875 0.609375 4.59375 1.78125q2.125 1.15625 3.546875 3.109375q1.421875 1.953125 1.421875 5.09375q0 2.53125 -0.9375 4.640625q-0.9375 2.09375 -2.71875 3.5625q-1.765625 1.46875 -4.40625 2.28125q-2.625 0.8125 -6.015625 0.8125zm32.96335 0q-2.0625 0 -3.890625 -0.828125q-1.828125 -0.84375 -3.34375 -2.671875l0 12.21875l-7.796875 0l0 -33.796875l7.796875 0l0 2.84375q1.46875 -1.78125 3.28125 -2.609375q1.828125 -0.84375 3.953125 -0.84375q2.28125 0 4.25 0.84375q1.984375 0.828125 3.421875 2.484375q1.453125 1.640625 2.265625 4.03125q0.8125 2.375 0.8125 5.453125q0 3.140625 -0.8125 5.53125q-0.8125 2.375 -2.265625 4.03125q-1.4375 1.640625 -3.421875 2.484375q-1.96875 0.828125 -4.25 0.828125zm-2.578125 -6.890625q2.28125 0 3.828125 -1.59375q1.546875 -1.59375 1.546875 -4.390625q0 -2.734375 -1.546875 -4.328125q-1.546875 -1.59375 -3.828125 -1.59375q-1.265625 0 -2.609375 0.609375q-1.34375 0.609375 -2.046875 1.625l0 7.4375q0.703125 0.96875 2.046875 1.609375q1.34375 0.625 2.609375 0.625zm31.820953 6.28125l0 -2.4375q-1.171875 1.375 -3.203125 2.21875q-2.015625 0.828125 -4.40625 0.828125q-1.421875 0 -2.921875 -0.484375q-1.484375 -0.484375 -2.703125 -1.46875q-1.203125 -0.984375 -2.0 -2.5q-0.78125 -1.53125 -0.78125 -3.609375q0 -2.21875 0.78125 -3.71875q0.796875 -1.5 2.0 -2.40625q1.21875 -0.90625 2.703125 -1.3125q1.5 -0.40625 2.921875 -0.40625q2.4375 0 4.453125 0.734375q2.03125 0.734375 3.15625 2.09375l0 -2.9375q0 -1.609375 -1.296875 -2.578125q-1.296875 -0.96875 -3.671875 -0.96875q-1.828125 0 -3.65625 0.671875q-1.8125 0.65625 -3.28125 1.921875l-2.796875 -4.921875q2.390625 -2.015625 5.328125 -2.90625q2.9375 -0.890625 5.765625 -0.890625q2.1875 0 4.265625 0.46875q2.078125 0.453125 3.640625 1.5625q1.578125 1.109375 2.53125 3.015625q0.96875 1.890625 0.96875 4.734375l0 15.296875l-7.796875 0zm-4.359375 -4.515625q1.3125 0 2.53125 -0.453125q1.21875 -0.453125 1.828125 -1.3125l0 -2.171875q-0.609375 -0.875 -1.828125 -1.296875q-1.21875 -0.4375 -2.53125 -0.4375q-1.578125 0 -2.75 0.6875q-1.15625 0.6875 -1.15625 2.15625q0 1.46875 1.15625 2.15625q1.171875 0.671875 2.75 0.671875zm17.833511 4.515625l0 -24.46875l7.796875 0l0 2.984375q0.609375 -0.75 1.46875 -1.40625q0.859375 -0.671875 1.875 -1.140625q1.015625 -0.484375 2.09375 -0.78125q1.09375 -0.3125 2.203125 -0.3125l0 7.5q-0.34375 -0.109375 -0.828125 -0.15625q-0.484375 -0.046875 -1.09375 -0.046875q-0.75 0 -1.59375 0.15625q-0.828125 0.140625 -1.640625 0.453125q-0.8125 0.296875 -1.46875 0.703125q-0.65625 0.40625 -1.015625 0.90625l0 15.609375l-7.796875 0zm34.496124 0l-5.375 -8.65625l-2.328125 2.78125l0 5.875l-7.796875 0l0 -33.78125l7.796875 0l0 19.09375l7.4375 -9.78125l9.421875 0l-9.015625 11.140625l9.484375 13.328125l-9.625 0zm26.798248 0l0 -17.671875l-4.0625 0l0 -6.796875l4.0625 0l0 -1.21875q0 -1.921875 0.65625 -3.515625q0.65625 -1.59375 1.8125 -2.734375q1.171875 -1.140625 2.765625 -1.75q1.59375 -0.609375 3.515625 -0.609375q1.984375 0 3.875 0.5625q1.90625 0.546875 3.171875 1.875l-2.890625 4.453125q-0.453125 -0.5 -1.015625 -0.734375q-0.546875 -0.234375 -1.40625 -0.234375q-1.125 0 -1.90625 0.6875q-0.78125 0.6875 -0.78125 2.0l0 1.21875l4.96875 0l0 6.796875l-4.96875 0l0 17.671875l-7.796875 0zm27.694687 0.609375q-3.140625 0 -5.59375 -1.03125q-2.453125 -1.046875 -4.171875 -2.8125q-1.71875 -1.78125 -2.640625 -4.109375q-0.90625 -2.328125 -0.90625 -4.921875q0 -2.578125 0.90625 -4.90625q0.921875 -2.328125 2.640625 -4.078125q1.71875 -1.75 4.171875 -2.78125q2.453125 -1.046875 5.59375 -1.046875q3.140625 0 5.625 1.046875q2.484375 1.03125 4.203125 2.78125q1.734375 1.75 2.640625 4.078125q0.90625 2.328125 0.90625 4.90625q0 2.59375 -0.90625 4.921875q-0.90625 2.328125 -2.640625 4.109375q-1.71875 1.765625 -4.203125 2.8125q-2.484375 1.03125 -5.625 1.03125zm0 -6.890625q2.59375 0 3.984375 -1.75q1.390625 -1.75 1.390625 -4.234375q0 -2.421875 -1.390625 -4.171875q-1.390625 -1.75 -3.984375 -1.75q-2.578125 0 -3.921875 1.75q-1.34375 1.75 -1.34375 4.171875q0 2.484375 1.34375 4.234375q1.34375 1.75 3.921875 1.75zm17.49054 6.28125l0 -24.46875l7.7968597 0l0 2.984375q0.609375 -0.75 1.46875 -1.40625q0.859375 -0.671875 1.875 -1.140625q1.015625 -0.484375 2.09375 -0.78125q1.09375 -0.3125 2.203125 -0.3125l0 7.5q-0.34375 -0.109375 -0.828125 -0.15625q-0.484375 -0.046875 -1.09375 -0.046875q-0.75 0 -1.59375 0.15625q-0.828125 0.140625 -1.640625 0.453125q-0.8125 0.296875 -1.46875 0.703125q-0.65625 0.40625 -1.015625 0.90625l0 15.609375l-7.7968597 0zm38.54225 0.609375q-2.578125 0 -4.96875 -0.6875q-2.375 -0.6875 -4.296875 -2.359375l3.640625 -6.625q0.921875 0.75 2.125 1.359375q1.21875 0.609375 2.734375 0.609375q2.078125 0 3.296875 -1.234375q1.21875 -1.25 1.21875 -3.375l0 -22.078125l8.71875 0l0 22.1875q0 3.140625 -0.921875 5.453125q-0.90625 2.296875 -2.5625 3.796875q-1.640625 1.484375 -3.921875 2.21875q-2.28125 0.734375 -5.0625 0.734375zm32.782288 -0.609375l0 -2.4375q-1.171875 1.375 -3.203125 2.21875q-2.015625 0.828125 -4.40625 0.828125q-1.421875 0 -2.921875 -0.484375q-1.484375 -0.484375 -2.703125 -1.46875q-1.203125 -0.984375 -2.0 -2.5q-0.78125 -1.53125 -0.78125 -3.609375q0 -2.21875 0.78125 -3.71875q0.796875 -1.5 2.0 -2.40625q1.21875 -0.90625 2.703125 -1.3125q1.5 -0.40625 2.921875 -0.40625q2.4375 0 4.453125 0.734375q2.03125 0.734375 3.15625 2.09375l0 -2.9375q0 -1.609375 -1.296875 -2.578125q-1.296875 -0.96875 -3.671875 -0.96875q-1.828125 0 -3.65625 0.671875q-1.8125 0.65625 -3.28125 1.921875l-2.796875 -4.921875q2.390625 -2.015625 5.328125 -2.90625q2.9375 -0.890625 5.765625 -0.890625q2.1875 0 4.265625 0.46875q2.078125 0.453125 3.640625 1.5625q1.578125 1.109375 2.53125 3.015625q0.96875 1.890625 0.96875 4.734375l0 15.296875l-7.796875 0zm-4.359375 -4.515625q1.3125 0 2.53125 -0.453125q1.21875 -0.453125 1.828125 -1.3125l0 -2.171875q-0.609375 -0.875 -1.828125 -1.296875q-1.21875 -0.4375 -2.53125 -0.4375q-1.578125 0 -2.75 0.6875q-1.15625 0.6875 -1.15625 2.15625q0 1.46875 1.15625 2.15625q1.171875 0.671875 2.75 0.671875zm24.114777 4.515625l-9.625 -24.46875l8.203125 0l5.515625 15.5l5.578125 -15.5l8.25 0l-9.625 24.46875l-8.296875 0zm34.700165 0l0 -2.4375q-1.171875 1.375 -3.203125 2.21875q-2.015625 0.828125 -4.40625 0.828125q-1.421875 0 -2.921875 -0.484375q-1.484375 -0.484375 -2.703125 -1.46875q-1.203125 -0.984375 -2.0 -2.5q-0.78125 -1.53125 -0.78125 -3.609375q0 -2.21875 0.78125 -3.71875q0.796875 -1.5 2.0 -2.40625q1.21875 -0.90625 2.703125 -1.3125q1.5 -0.40625 2.921875 -0.40625q2.4375 0 4.453125 0.734375q2.03125 0.734375 3.15625 2.09375l0 -2.9375q0 -1.609375 -1.296875 -2.578125q-1.296875 -0.96875 -3.671875 -0.96875q-1.828125 0 -3.65625 0.671875q-1.8125 0.65625 -3.28125 1.921875l-2.796875 -4.921875q2.390625 -2.015625 5.328125 -2.90625q2.9375 -0.890625 5.765625 -0.890625q2.1875 0 4.265625 0.46875q2.078125 0.453125 3.640625 1.5625q1.578125 1.109375 2.53125 3.015625q0.96875 1.890625 0.96875 4.734375l0 15.296875l-7.796875 0zm-4.359375 -4.515625q1.3125 0 2.53125 -0.453125q1.21875 -0.453125 1.828125 -1.3125l0 -2.171875q-0.609375 -0.875 -1.828125 -1.296875q-1.21875 -0.4375 -2.53125 -0.4375q-1.578125 0 -2.75 0.6875q-1.15625 0.6875 -1.15625 2.15625q0 1.46875 1.15625 2.15625q1.171875 0.671875 2.75 0.671875zm31.00467 4.515625l0 -33.78125l14.171875 0q4.0 0 7.34375 1.171875q3.34375 1.15625 5.78125 3.34375q2.4375 2.171875 3.796875 5.28125q1.375 3.109375 1.375 7.0625q0 3.953125 -1.375 7.078125q-1.359375 3.109375 -3.796875 5.3125q-2.4375 2.203125 -5.78125 3.375q-3.34375 1.15625 -7.28125 1.15625l-14.234375 0zm14.171875 -7.59375q2.234375 0 3.984375 -0.765625q1.75 -0.765625 2.9375 -2.03125q1.1875 -1.265625 1.8125 -2.953125q0.640625 -1.703125 0.640625 -3.578125q0 -1.96875 -0.59375 -3.640625q-0.578125 -1.671875 -1.75 -2.9375q-1.15625 -1.265625 -2.90625 -1.96875q-1.734375 -0.71875 -4.0625 -0.71875l-5.53125 0l0 18.59375l5.46875 0zm34.20215 8.203125q-2.84375 0 -5.28125 -0.890625q-2.421875 -0.890625 -4.21875 -2.5625q-1.796875 -1.671875 -2.84375 -4.046875q-1.03125 -2.375 -1.03125 -5.375q0 -2.625 0.953125 -4.984375q0.96875 -2.359375 2.6875 -4.078125q1.71875 -1.71875 4.09375 -2.734375q2.390625 -1.015625 5.28125 -1.015625q2.734375 0 5.015625 0.96875q2.28125 0.953125 3.953125 2.734375q1.671875 1.765625 2.609375 4.3125q0.9375 2.53125 0.9375 5.609375l0 1.671875l-17.421875 0q0.34375 1.734375 1.890625 3.046875q1.546875 1.3125 4.234375 1.3125q0.65625 0 1.484375 -0.125q0.84375 -0.125 1.671875 -0.40625q0.84375 -0.28125 1.625 -0.65625q0.78125 -0.375 1.296875 -0.890625l3.296875 4.859375q-1.828125 1.625 -4.625 2.4375q-2.78125 0.8125 -5.609375 0.8125zm4.703125 -15.453125q-0.09375 -0.65625 -0.375 -1.390625q-0.28125 -0.734375 -0.890625 -1.359375q-0.609375 -0.640625 -1.515625 -1.046875q-0.90625 -0.40625 -2.28125 -0.40625q-1.265625 0 -2.1875 0.40625q-0.90625 0.40625 -1.484375 1.046875q-0.578125 0.625 -0.90625 1.359375q-0.328125 0.734375 -0.4375 1.390625l10.078125 0zm17.587769 14.84375l-9.625 -24.46875l8.203125 0l5.515625 15.5l5.578125 -15.5l8.25 0l-9.625 24.46875l-8.296875 0zm29.62204 0.609375q-1.609375 0 -3.265625 -0.265625q-1.640625 -0.25 -3.140625 -0.75q-1.484375 -0.5 -2.78125 -1.1875q-1.296875 -0.6875 -2.25 -1.546875l3.234375 -5.375q0.65625 0.609375 1.6875 1.203125q1.046875 0.578125 2.203125 1.03125q1.171875 0.453125 2.40625 0.734375q1.25 0.28125 2.3125 0.28125q1.78125 0 2.53125 -0.5q0.765625 -0.515625 0.765625 -1.375q0 -0.8125 -1.0625 -1.15625q-1.0625 -0.359375 -2.640625 -0.640625q-1.5625 -0.28125 -3.421875 -0.65625q-1.84375 -0.390625 -3.421875 -1.21875q-1.5625 -0.84375 -2.625 -2.28125q-1.0625 -1.4375 -1.0625 -3.921875q0 -1.625 0.6875 -3.09375q0.6875 -1.46875 2.0 -2.5625q1.3125 -1.09375 3.28125 -1.75q1.984375 -0.65625 4.515625 -0.65625q3.09375 0 5.671875 0.890625q2.59375 0.890625 4.5625 2.359375l-2.984375 5.15625q-1.125 -1.0625 -3.046875 -1.859375q-1.921875 -0.8125 -4.15625 -0.8125q-1.359375 0 -2.21875 0.5q-0.859375 0.5 -0.859375 1.265625q0 0.703125 1.0625 1.046875q1.0625 0.328125 2.625 0.609375q1.578125 0.265625 3.421875 0.671875q1.84375 0.40625 3.40625 1.296875q1.578125 0.890625 2.640625 2.4375q1.078125 1.53125 1.078125 4.015625q0 1.78125 -0.765625 3.25q-0.765625 1.46875 -2.1875 2.5625q-1.40625 1.078125 -3.484375 1.6875q-2.078125 0.609375 -4.71875 0.609375z" fill-rule="nonzero"/><path fill="#000000" fill-opacity="0.0" d="m56.692913 316.85303l846.61414 0l0 64.944885l-846.61414 0z" fill-rule="evenodd"/><path fill="#000000" d="m58.880413 352.733l0 -18.671875l7.500004 0q2.65625 0 4.25 1.59375q1.609375 1.59375 1.609375 4.03125q0 2.46875 -1.625 4.046875q-1.625 1.578125 -4.234375 1.578125l-5.171879 0l0 7.421875l-2.328125 0zm7.218754 -9.484375q1.6875 0 2.703125 -0.984375q1.015625 -0.984375 1.015625 -2.578125q0 -1.59375 -1.015625 -2.578125q-1.015625 -0.984375 -2.703125 -0.984375l-4.890629 0l0 7.125l4.890629 0zm17.032318 9.484375l0 -1.546875q-1.71875 1.890625 -4.484375 1.890625q-2.046875 0 -3.390625 -1.28125q-1.34375 -1.296875 -1.34375 -3.203125q0 -1.96875 1.328125 -3.203125q1.328125 -1.25 3.40625 -1.25q2.90625 0 4.484375 1.84375l0 -2.4375q0 -1.375 -0.96875 -2.109375q-0.96875 -0.75 -2.453125 -0.75q-2.375 0 -4.140625 1.890625l-0.984375 -1.46875q2.15625 -2.234375 5.40625 -2.234375q2.484375 0 3.859375 1.203125q1.375 1.203125 1.375 3.359375l0 9.296875l-2.09375 0zm-3.734375 -1.171875q2.5 0 3.734375 -1.6875l0 -2.546875q-1.234375 -1.671875 -3.734375 -1.671875q-1.484375 0 -2.40625 0.828125q-0.921875 0.8125 -0.921875 2.140625q0 1.28125 0.921875 2.109375q0.921875 0.828125 2.40625 0.828125zm14.318558 1.515625q-3.453125 0 -5.46875 -2.140625l1.09375 -1.5q0.671875 0.78125 1.859375 1.359375q1.1875 0.5625 2.59375 0.5625q1.5625 0 2.375 -0.65625q0.8125 -0.65625 0.8125 -1.671875q0 -0.890625 -0.890625 -1.40625q-0.875 -0.515625 -3.28125 -1.078125q-2.046875 -0.421875 -3.125 -1.328125q-1.078125 -0.90625 -1.078125 -2.453125q0 -1.703125 1.375 -2.796875q1.375 -1.09375 3.671875 -1.09375q3.046875 0 5.015625 1.953125l-0.984375 1.46875q-0.609375 -0.734375 -1.671875 -1.21875q-1.046875 -0.5 -2.359375 -0.5q-1.40625 0 -2.203125 0.625q-0.796875 0.609375 -0.796875 1.5q0 0.8125 0.890625 1.296875q0.90625 0.46875 3.3125 0.984375q2.046875 0.46875 3.109375 1.4375q1.0625 0.96875 1.0625 2.5625q0 1.875 -1.453125 2.984375q-1.453125 1.109375 -3.859375 1.109375zm17.879425 -0.34375l0 -8.90625q0 -1.515625 -0.71875 -2.296875q-0.703125 -0.78125 -2.328125 -0.78125q-1.140625 0 -2.21875 0.59375q-1.078125 0.578125 -1.78125 1.5l0 9.890625l-2.109375 0l0 -18.671875l2.109375 0l0 7.109375q0.890625 -1.03125 2.171875 -1.65625q1.296875 -0.640625 2.671875 -0.640625q4.3125 0 4.3125 4.3125l0 9.546875l-2.109375 0zm14.76857 0l0 -1.546875q-1.71875 1.890625 -4.484375 1.890625q-2.046875 0 -3.390625 -1.28125q-1.34375 -1.296875 -1.34375 -3.203125q0 -1.96875 1.328125 -3.203125q1.328125 -1.25 3.40625 -1.25q2.90625 0 4.484375 1.84375l0 -2.4375q0 -1.375 -0.96875 -2.109375q-0.96875 -0.75 -2.453125 -0.75q-2.375 0 -4.140625 1.890625l-0.984375 -1.46875q2.15625 -2.234375 5.40625 -2.234375q2.484375 0 3.859375 1.203125q1.375 1.203125 1.375 3.359375l0 9.296875l-2.09375 0zm-3.734375 -1.171875q2.5 0 3.734375 -1.6875l0 -2.546875q-1.234375 -1.671875 -3.734375 -1.671875q-1.484375 0 -2.40625 0.828125q-0.921875 0.8125 -0.921875 2.140625q0 1.28125 0.921875 2.109375q0.921875 0.828125 2.40625 0.828125zm17.339462 1.171875l0 -18.671875l12.234375 0l0 2.0625l-9.90625 0l0 6.03125l9.703125 0l0 2.0625l-9.703125 0l0 8.515625l-2.328125 0zm16.353195 -15.453125q-0.5625 0 -0.984375 -0.40625q-0.421875 -0.40625 -0.421875 -1.0q0 -0.578125 0.421875 -1.0q0.421875 -0.421875 0.984375 -0.421875q0.578125 0 1.0 0.421875q0.421875 0.421875 0.421875 1.0q0 0.59375 -0.421875 1.0q-0.421875 0.40625 -1.0 0.40625zm-1.046875 15.453125l0 -13.53125l2.109375 0l0 13.53125l-2.109375 0zm15.440659 0l0 -8.84375q0 -1.796875 -0.828125 -2.46875q-0.828125 -0.671875 -2.203125 -0.671875q-1.171875 0 -2.3125 0.640625q-1.125 0.625 -1.6875 1.453125l0 9.890625l-2.109375 0l0 -13.53125l2.109375 0l0 1.96875q0.859375 -1.015625 2.125 -1.65625q1.28125 -0.640625 2.6875 -0.640625q4.3125 0 4.3125 4.375l0 9.484375l-2.09375 0zm15.506195 0l-4.875 -6.078125l-2.234375 2.21875l0 3.859375l-2.109375 0l0 -18.671875l2.109375 0l0 12.34375l7.109375 -7.203125l2.65625 0l-5.984375 6.140625l6.015625 7.390625l-2.6875 0zm11.198685 0.34375q-3.046875 0 -4.96875 -1.984375q-1.921875 -2.0 -1.921875 -5.140625q0 -2.984375 1.90625 -5.03125q1.90625 -2.046875 4.765625 -2.046875q2.90625 0 4.6875 2.015625q1.796875 2.015625 1.796875 5.234375l0 0.53125l-10.9375 0q0.109375 2.078125 1.484375 3.375q1.390625 1.296875 3.390625 1.296875q2.453125 0 4.171875 -1.703125l1.0 1.375q-2.0625 2.078125 -5.375 2.078125zm4.203125 -7.953125q0 -1.875 -1.234375 -3.1875q-1.234375 -1.328125 -3.21875 -1.328125q-1.875 0 -3.125 1.328125q-1.25 1.3125 -1.296875 3.1875l8.875 0zm5.4515686 7.609375l0 -18.671875l2.109375 0l0 18.671875l-2.109375 0zm10.596909 0.34375q-3.453125 0 -5.46875 -2.140625l1.09375 -1.5q0.671875 0.78125 1.859375 1.359375q1.1875 0.5625 2.59375 0.5625q1.5625 0 2.375 -0.65625q0.8125 -0.65625 0.8125 -1.671875q0 -0.890625 -0.890625 -1.40625q-0.875 -0.515625 -3.28125 -1.078125q-2.046875 -0.421875 -3.125 -1.328125q-1.078125 -0.90625 -1.078125 -2.453125q0 -1.703125 1.375 -2.796875q1.375 -1.09375 3.671875 -1.09375q3.046875 0 5.015625 1.953125l-0.984375 1.46875q-0.609375 -0.734375 -1.671875 -1.21875q-1.046875 -0.5 -2.359375 -0.5q-1.40625 0 -2.203125 0.625q-0.796875 0.609375 -0.796875 1.5q0 0.8125 0.890625 1.296875q0.90625 0.46875 3.3125 0.984375q2.046875 0.46875 3.109375 1.4375q1.0625 0.96875 1.0625 2.5625q0 1.875 -1.453125 2.984375q-1.453125 1.109375 -3.859375 1.109375zm17.879425 -0.34375l0 -8.90625q0 -1.515625 -0.71875 -2.296875q-0.703125 -0.78125 -2.328125 -0.78125q-1.140625 0 -2.21875 0.59375q-1.078125 0.578125 -1.78125 1.5l0 9.890625l-2.109375 0l0 -18.671875l2.109375 0l0 7.109375q0.890625 -1.03125 2.171875 -1.65625q1.296875 -0.640625 2.671875 -0.640625q4.3125 0 4.3125 4.3125l0 9.546875l-2.109375 0zm9.721695 0.34375q-3.0 0 -3.0 -3.171875l0 -8.84375l-2.234375 0l0 -1.859375l2.234375 0l0 -3.6875l2.109375 0l0 3.6875l2.734375 0l0 1.859375l-2.734375 0l0 8.390625q0 0.765625 0.328125 1.25q0.34375 0.484375 1.03125 0.484375q0.875 0 1.4375 -0.546875l0.609375 1.5625q-0.859375 0.875 -2.515625 0.875zm10.91954 0q-3.046875 0 -4.96875 -1.984375q-1.921875 -2.0 -1.921875 -5.140625q0 -2.984375 1.90625 -5.03125q1.90625 -2.046875 4.765625 -2.046875q2.90625 0 4.6875 2.015625q1.796875 2.015625 1.796875 5.234375l0 0.53125l-10.9375 0q0.109375 2.078125 1.484375 3.375q1.390625 1.296875 3.390625 1.296875q2.453125 0 4.171875 -1.703125l1.0 1.375q-2.0625 2.078125 -5.375 2.078125zm4.203125 -7.953125q0 -1.875 -1.234375 -3.1875q-1.234375 -1.328125 -3.21875 -1.328125q-1.875 0 -3.125 1.328125q-1.25 1.3125 -1.296875 3.1875l8.875 0zm5.0453186 11.0q0.4375 0.21875 1.140625 0.21875q0.703125 0 1.171875 -0.296875q0.484375 -0.28125 0.84375 -1.125l0.890625 -2.046875l-5.65625 -13.671875l2.28125 0l4.5 11.09375l4.484375 -11.09375l2.296875 0l-6.78125 16.28125q-1.125 2.6875 -3.96875 2.734375q-0.8125 0 -1.546875 -0.1875l0.34375 -1.90625zm23.266937 -3.390625l0 -8.84375q0 -1.796875 -0.828125 -2.46875q-0.828125 -0.671875 -2.203125 -0.671875q-1.171875 0 -2.3125 0.640625q-1.125 0.625 -1.6875 1.453125l0 9.890625l-2.109375 0l0 -13.53125l2.109375 0l0 1.96875q0.859375 -1.015625 2.125 -1.65625q1.28125 -0.640625 2.6875 -0.640625q4.3125 0 4.3125 4.375l0 9.484375l-2.09375 0zm9.11557 -0.671875q0 1.28125 -0.65625 2.40625q-0.65625 1.125 -1.640625 1.828125l-1.03125 -0.875q0.671875 -0.453125 1.203125 -1.1875q0.53125 -0.71875 0.625 -1.421875l-0.390625 0.0625q-0.59375 0 -0.96875 -0.390625q-0.375 -0.390625 -0.375 -1.03125q0 -0.625 0.40625 -1.0625q0.421875 -0.453125 1.0625 -0.453125q0.703125 0 1.234375 0.5625q0.53125 0.546875 0.53125 1.5625zm13.9296875 1.015625q-3.03125 0 -4.875 -2.15625l1.203125 -1.765625q1.5625 1.84375 3.53125 1.84375q1.734375 0 2.734375 -1.078125q1.015625 -1.078125 1.015625 -2.84375l0 -13.015625l2.3125 0l0 13.046875q0 2.828125 -1.59375 4.40625q-1.59375 1.5625 -4.328125 1.5625zm16.315674 0q-3.046875 0 -4.96875 -1.984375q-1.921875 -2.0 -1.921875 -5.140625q0 -2.984375 1.90625 -5.03125q1.90625 -2.046875 4.765625 -2.046875q2.90625 0 4.6875 2.015625q1.796875 2.015625 1.796875 5.234375l0 0.53125l-10.9375 0q0.109375 2.078125 1.484375 3.375q1.390625 1.296875 3.390625 1.296875q2.453125 0 4.171875 -1.703125l1.0 1.375q-2.0625 2.078125 -5.375 2.078125zm4.203125 -7.953125q0 -1.875 -1.234375 -3.1875q-1.234375 -1.328125 -3.21875 -1.328125q-1.875 0 -3.125 1.328125q-1.25 1.3125 -1.296875 3.1875l8.875 0zm8.873444 7.953125q-3.0 0 -3.0 -3.171875l0 -8.84375l-2.234375 0l0 -1.859375l2.234375 0l0 -3.6875l2.109375 0l0 3.6875l2.734375 0l0 1.859375l-2.734375 0l0 8.390625q0 0.765625 0.328125 1.25q0.34375 0.484375 1.03125 0.484375q0.875 0 1.4375 -0.546875l0.609375 1.5625q-0.859375 0.875 -2.515625 0.875zm4.9039 -0.34375l0 -18.671875l8.3125 0q2.375 0 3.796875 1.296875q1.4375 1.296875 1.4375 3.453125q0 1.65625 -0.90625 2.8125q-0.90625 1.140625 -2.375 1.484375q1.484375 0.21875 2.5625 1.5625q1.078125 1.34375 1.078125 3.015625q0 2.296875 -1.4375 3.671875q-1.4375 1.375 -3.953125 1.375l-8.515625 0zm7.921875 -10.578125q1.59375 0 2.40625 -0.859375q0.8125 -0.859375 0.8125 -2.140625q0 -1.265625 -0.8125 -2.140625q-0.8125 -0.890625 -2.40625 -0.890625l-5.59375 0l0 6.03125l5.59375 0zm0.109375 8.5q1.65625 0 2.5625 -0.84375q0.90625 -0.859375 0.90625 -2.375q0 -1.421875 -0.953125 -2.3125q-0.953125 -0.90625 -2.515625 -0.90625l-5.703125 0l0 6.4375l5.703125 0zm9.487061 2.078125l0 -13.53125l2.109375 0l0 2.1875q1.875 -2.453125 4.5 -2.453125l0 2.15625l-0.828125 -0.09375q-0.953125 0 -2.109375 0.6875q-1.140625 0.6875 -1.5625 1.46875l0 9.578125l-2.109375 0zm17.708801 0l0 -1.546875q-1.71875 1.890625 -4.484375 1.890625q-2.046875 0 -3.390625 -1.28125q-1.34375 -1.296875 -1.34375 -3.203125q0 -1.96875 1.328125 -3.203125q1.328125 -1.25 3.40625 -1.25q2.90625 0 4.484375 1.84375l0 -2.4375q0 -1.375 -0.96875 -2.109375q-0.96875 -0.75 -2.453125 -0.75q-2.375 0 -4.140625 1.890625l-0.984375 -1.46875q2.15625 -2.234375 5.40625 -2.234375q2.484375 0 3.859375 1.203125q1.375 1.203125 1.375 3.359375l0 9.296875l-2.09375 0zm-3.734375 -1.171875q2.5 0 3.734375 -1.6875l0 -2.546875q-1.234375 -1.671875 -3.734375 -1.671875q-1.484375 0 -2.40625 0.828125q-0.921875 0.8125 -0.921875 2.140625q0 1.28125 0.921875 2.109375q0.921875 0.828125 2.40625 0.828125zm11.0685425 -14.28125q-0.5625 0 -0.984375 -0.40625q-0.421875 -0.40625 -0.421875 -1.0q0 -0.578125 0.421875 -1.0q0.421875 -0.421875 0.984375 -0.421875q0.578125 0 1.0 0.421875q0.421875 0.421875 0.421875 1.0q0 0.59375 -0.421875 1.0q-0.421875 0.40625 -1.0 0.40625zm-1.046875 15.453125l0 -13.53125l2.109375 0l0 13.53125l-2.109375 0zm15.440674 0l0 -8.84375q0 -1.796875 -0.828125 -2.46875q-0.828125 -0.671875 -2.203125 -0.671875q-1.171875 0 -2.3125 0.640625q-1.125 0.625 -1.6875 1.453125l0 9.890625l-2.109375 0l0 -13.53125l2.109375 0l0 1.96875q0.859375 -1.015625 2.125 -1.65625q1.28125 -0.640625 2.6875 -0.640625q4.3125 0 4.3125 4.375l0 9.484375l-2.09375 0zm10.58432 0.34375q-3.453125 0 -5.46875 -2.140625l1.09375 -1.5q0.671875 0.78125 1.859375 1.359375q1.1875 0.5625 2.59375 0.5625q1.5625 0 2.375 -0.65625q0.8125 -0.65625 0.8125 -1.671875q0 -0.890625 -0.890625 -1.40625q-0.875 -0.515625 -3.28125 -1.078125q-2.046875 -0.421875 -3.125 -1.328125q-1.078125 -0.90625 -1.078125 -2.453125q0 -1.703125 1.375 -2.796875q1.375 -1.09375 3.671875 -1.09375q3.046875 0 5.015625 1.953125l-0.984375 1.46875q-0.609375 -0.734375 -1.671875 -1.21875q-1.046875 -0.5 -2.359375 -0.5q-1.40625 0 -2.203125 0.625q-0.796875 0.609375 -0.796875 1.5q0 0.8125 0.890625 1.296875q0.90625 0.46875 3.3125 0.984375q2.046875 0.46875 3.109375 1.4375q1.0625 0.96875 1.0625 2.5625q0 1.875 -1.453125 2.984375q-1.453125 1.109375 -3.859375 1.109375z" fill-rule="nonzero"/><path fill="#201f2a" d="m64.487656 56.696167l0 12.821922l-0.04193878 0.50289917l-0.1254425 0.4609604l-0.20970154 0.4190216l-0.29319763 0.33514404l-0.33514023 0.29319763l-0.3774681 0.20970917l-0.46057892 0.12543488l-0.502903 0.04193878l-0.4609604 -0.04193878l-0.4190216 -0.12543488l-0.37708282 -0.16776276l-0.29320145 -0.25125885l-0.3355255 -0.25164795l-0.20931625 -0.29319763l-3.3521767 3.4776077l0.29319763 0.37747192l0.33514404 0.29319763l0.3774643 0.33514404l0.4190216 0.25125885l0.46057892 0.2935791l0.5448456 0.25125885l0.502903 0.25126648l0.54484177 0.16776276l0.5444603 0.12581635l0.58678436 0.08388519l0.6283417 0.083496094l0.62872314 0l0.79610443 -0.04193878l0.75416183 -0.083496094l0.71222687 -0.16776276l0.6706619 -0.20932007l0.6283417 -0.29358673l0.58678436 -0.33514404l0.5444565 -0.3770752l0.5448456 -0.5029068l0.46096802 -0.5029068l0.4190216 -0.58639526l0.3351364 -0.58678436l0.29319763 -0.6283417l0.20970917 -0.67066956l0.16776276 -0.71221924l0.083496094 -0.75416565l0.04193878 -0.7960968l0 -12.821922z" fill-rule="evenodd"/><path fill="#201f2a" d="m81.58368 62.14345l1.7599716 5.572727l-3.6038208 0l1.7180252 -5.572727zm-2.9750977 -5.4472847l-7.374634 19.526268l5.6985474 0l1.3828888 -4.190216l6.4107666 0l1.4248276 4.190216l5.6985474 0l-7.374634 -19.526268z" fill-rule="evenodd"/><path fill="#201f2a" d="m89.50316 56.696167l6.955612 19.526268l5.86631 0l6.955612 -19.526268l-5.6985474 0l-4.148285 13.6599655l-0.08387756 0l-4.1482773 -13.6599655z" fill-rule="evenodd"/><path fill="#201f2a" d="m117.28366 62.14345l1.7599716 5.572727l-3.6034317 0l1.759964 -5.572727zm-2.9747086 -5.4472847l-7.3750153 19.526268l5.698929 0l1.3824997 -4.190216l6.4111557 0l1.4244461 4.190216l5.698929 0l-7.3750153 -19.526268z" fill-rule="evenodd"/><path fill="#201f2a" d="m58.034946 80.41228l0 19.526268l5.2795258 0l0 -11.606796l5.4472847 6.8301773l5.4472885 -6.8301773l0 11.606796l5.2795258 0l0 -19.526268l-4.7350693 0l-5.991745 7.50045l-5.9921303 -7.50045z" fill-rule="evenodd"/><path fill="#201f2a" d="m90.38314 89.756584l0.37708282 0.12581635l0.37708282 0.16738129l0.3351364 0.20970154l0.25125885 0.29319763l0.25164795 0.29320526l0.20932007 0.3351364l0.12581635 0.37708282l-4.7350616 0l0.16776276 -0.37708282l0.16738129 -0.3351364l0.25164032 -0.29320526l0.29319763 -0.29319763l0.33514404 -0.20970154l0.3355255 -0.16738129l0.4190216 -0.12581635zm-0.4190216 -3.771202l-0.7545471 0.04193878l-0.71221924 0.08388519l-0.67028046 0.16737366l-0.67066956 0.20970917l-0.6283417 0.29319763l-0.58678436 0.37708282l-0.5864029 0.4190216l-0.54483795 0.50289917l-0.5029068 0.5448456l-0.4190216 0.5444641l-0.37708282 0.58678436l-0.29319763 0.6283417l-0.20970154 0.62872314l-0.16738129 0.67028046l-0.08387756 0.6706619l-0.04194641 0.75416565l0.04194641 0.71221924l0.08387756 0.71222687l0.16738129 0.6706619l0.25164032 0.6283417l0.29319763 0.6287308l0.37708282 0.58639526l0.4190216 0.5448456l0.5029068 0.5448456l0.5448456 0.5025177l0.58639526 0.4190216l0.6287308 0.33514404l0.67028046 0.2935791l0.67028046 0.20932007l0.7545471 0.16776276l0.75416565 0.12582397l1.3405609 0l0.5448456 -0.04193878l0.54483795 -0.08388519l0.5029068 -0.12582397l0.5444565 -0.12581635l0.46096802 -0.16738129l0.4609604 -0.20970154l0.4609604 -0.20932007l0.4190216 -0.20970154l0.37708282 -0.25125885l0.37708282 -0.25125885l0.3351364 -0.25164795l-1.8434601 -3.1005325l-0.33514404 0.33514404l-0.5448456 0.3351364l-0.58678436 0.25125885l-0.6283417 0.20970917l-0.58678436 0.12581635l-1.2570648 0l-0.5444565 -0.12581635l-0.5029068 -0.20970917l-0.4609604 -0.25125885l-0.37708282 -0.3351364l-0.29319763 -0.33514404l-0.16776276 -0.3351364l-0.12582397 -0.3355255l9.344307 0l0.04193878 -0.46096802l0.083496094 -1.0893021l0 -0.71221924l-0.12543488 -0.67066956l-0.12582397 -0.67028046l-0.25125885 -0.6283417l-0.29358673 -0.62872314l-0.3351364 -0.5448456l-0.4190216 -0.5444565l-0.5029068 -0.5448456l-0.5025177 -0.4609604l-0.58678436 -0.4190216l-0.5448456 -0.33514404l-0.6283417 -0.29319763l-0.6706619 -0.20970917l-0.67028046 -0.16737366l-0.71222687 -0.08388519l-0.71221924 -0.04193878z" fill-rule="evenodd"/><path fill="#201f2a" d="m106.556854 89.756584l0.37708282 0.12581635l0.3774643 0.16738129l0.33514404 0.20970154l0.29319763 0.29319763l0.20970154 0.29320526l0.20932007 0.3351364l0.12582397 0.37708282l-4.7350693 0l0.16776276 -0.37708282l0.16738129 -0.3351364l0.25164032 -0.29320526l0.29320526 -0.29319763l0.3351364 -0.20970154l0.33514404 -0.16738129l0.4190216 -0.12581635zm-0.4190216 -3.771202l-0.75416565 0.04193878l-0.71221924 0.08388519l-0.67028046 0.16737366l-0.67066956 0.20970917l-0.6283417 0.29319763l-0.58678436 0.37708282l-0.58639526 0.4190216l-0.5448456 0.50289917l-0.4609604 0.5448456l-0.46096802 0.5444641l-0.3351364 0.58678436l-0.33514404 0.6283417l-0.20970154 0.62872314l-0.16738129 0.67028046l-0.08387756 0.6706619l-0.04193878 0.75416565l0.04193878 0.71221924l0.08387756 0.71222687l0.16738129 0.6706619l0.25164032 0.6283417l0.29320526 0.6287308l0.37708282 0.58639526l0.4190216 0.5448456l0.50289917 0.5448456l0.5444565 0.5025177l0.6287308 0.4190216l0.58639526 0.33514404l0.67066956 0.2935791l0.71221924 0.20932007l0.71222687 0.16776276l0.7545471 0.12582397l1.3405609 0l0.5448456 -0.04193878l0.5448456 -0.08388519l0.5444565 -0.12582397l0.5029068 -0.12581635l0.4609604 -0.16738129l0.4609604 -0.20970154l0.4609604 -0.20932007l0.41902924 -0.20970154l0.3770752 -0.25125885l0.37708282 -0.25125885l0.33514404 -0.25164795l-1.8434677 -3.1005325l-0.3355255 0.33514404l-0.5444565 0.3351364l-0.586792 0.25125885l-0.62833405 0.20970917l-0.58678436 0.12581635l-1.2570724 0l-0.5444565 -0.12581635l-0.5029068 -0.20970917l-0.4609604 -0.25125885l-0.37708282 -0.3351364l-0.2935791 -0.33514404l-0.16738129 -0.3351364l-0.12582397 -0.3355255l9.344307 0l0.083496094 -0.46096802l0.08388519 -1.0893021l-0.04193878 -0.71221924l-0.1254425 -0.67066956l-0.12581635 -0.67028046l-0.25164795 -0.6283417l-0.29319763 -0.62872314l-0.33514404 -0.5448456l-0.4190216 -0.5444565l-0.50289917 -0.5448456l-0.5029068 -0.4609604l-0.5444565 -0.4190216l-0.58678436 -0.33514404l-0.6283417 -0.29319763l-0.67066956 -0.20970917l-0.67028046 -0.16737366l-0.71221924 -0.08388519l-0.71260834 -0.04193878z" fill-rule="evenodd"/><path fill="#201f2a" d="m117.409485 82.340004l0 2.5141373l0 0.3351364l-0.08387756 0.33514404l-0.16738129 0.29319763l-0.20970154 0.25164795l-0.25125885 0.20931244l-0.29319763 0.12582397l-0.29358673 0.08388519l-0.33514404 0.04193878l-0.8380432 0l0 4.4834213l1.9273453 0l0 3.896637l0.04194641 0.58678436l0.04193878 0.58639526l0.12582397 0.5448456l0.12581635 0.5029068l0.16738129 0.4609604l0.25164032 0.4609604l0.25126648 0.37708282l0.29319763 0.37708282l0.37708282 0.3351364l0.3770752 0.29320526l0.37747192 0.20970154l0.46057892 0.20932007l0.4609604 0.16776276l0.4609604 0.08387756l0.5448456 0.08388519l1.0473633 0l0.50289917 -0.04193878l0.5029068 -0.04194641l0.4609604 -0.08387756l0.79610443 -0.25125885l0 -4.3160477l-0.20970154 0.08388519l-0.16738129 0.04193878l-0.50289917 0.1254425l-0.5029068 0.04193878l-0.37708282 -0.04193878l-0.29319763 -0.08350372l-0.25164032 -0.12581635l-0.25125885 -0.16776276l-0.16776276 -0.25125885l-0.083496094 -0.29320526l-0.08388519 -0.3355255l-0.04193878 -0.3770752l0 -3.0585938l2.6399536 0l0 -4.4834213l-2.6399536 0l0 -4.1902237z" fill-rule="evenodd"/><path fill="#201f2a" d="m129.98015 79.825874l-0.5448456 0.04193878l-0.29319763 0.08388519l-0.25164795 0.083496094l-0.20932007 0.08387756l-0.20970154 0.12582397l-0.20932007 0.16738129l-0.20970154 0.16776276l-0.16737366 0.16776276l-0.16776276 0.20931244l-0.12582397 0.20970917l-0.083496094 0.20931244l-0.08388519 0.20970917l-0.04193878 0.25125885l-0.04193878 0.50289917l0.04193878 0.5444641l0.12582397 0.4609604l0.083496094 0.20970154l0.12582397 0.20932007l0.3351364 0.4190216l0.20970154 0.12582397l0.20932007 0.16776276l0.20970154 0.12543488l0.20932007 0.08388519l0.5448456 0.12581635l0.5448456 0.04194641l0.5444641 -0.04194641l0.50289917 -0.12581635l0.25164795 -0.08388519l0.20932007 -0.12543488l0.20970154 -0.16776276l0.16737366 -0.12582397l0.16775513 -0.20932007l0.16738892 -0.20970154l0.12582397 -0.20932007l0.12582397 -0.20970154l0.08387756 -0.20932007l0.041549683 -0.25164032l0.04194641 -0.5444641l-0.04194641 -0.50289917l-0.041549683 -0.25125885l-0.08387756 -0.20970917l-0.12582397 -0.20931244l-0.12582397 -0.20970917l-0.16738892 -0.20931244l-0.16775513 -0.16776276l-0.16737366 -0.16776276l-0.20970154 -0.16738129l-0.20932007 -0.12582397l-0.25164795 -0.08387756l-0.25126648 -0.083496094l-0.2516327 -0.08388519l-0.5444641 -0.04193878zm-2.3886948 6.4107666l0 13.701904l4.7350693 0l0 -13.701904z" fill-rule="evenodd"/><path fill="#201f2a" d="m144.18457 85.98538l-0.4190216 0.08388519l-0.3770752 0.08387756l-0.37709045 0.083496094l-0.3770752 0.16776276l-0.37709045 0.20932007l-0.33512878 0.20970154l-0.33514404 0.25125885l-0.25164795 0.29358673l-0.25125122 0.25125885l-0.2097168 0.29319763l-0.16737366 0.29358673l-0.12582397 0l0 -1.9696732l-4.73468 0l0 13.701904l4.73468 0l0 -6.997551l0.04194641 -0.5448456l0.08387756 -0.46057892l0.20932007 -0.4190216l0.25164795 -0.3774643l0.33514404 -0.29319763l0.4190216 -0.25125885l0.4190216 -0.12582397l0.46095276 -0.04193878l0.4190216 0.04193878l0.37709045 0.12582397l0.29319763 0.20932007l0.29319763 0.25164032l0.25164795 0.33514404l0.16737366 0.3770752l0.12582397 0.4190216l0.04194641 0.5029068l0 7.24881l4.73468 0l0 -8.254616l-0.04156494 -0.6283417l-0.041931152 -0.62872314l-0.12582397 -0.5444641l-0.16777039 -0.54483795l-0.16737366 -0.5029068l-0.25164795 -0.5029068l-0.25125122 -0.4190216l-0.33514404 -0.4190216l-0.33514404 -0.3351364l-0.3770752 -0.33514404l-0.4190216 -0.25125885l-0.4190216 -0.20970154l-0.46096802 -0.16776276l-0.46096802 -0.12543488l-0.50289917 -0.08388519z" fill-rule="evenodd"/><path fill="#201f2a" d="m159.39519 90.175606l0.5025177 0.04193878l0.50289917 0.12543488l0.4190216 0.20970154l0.37709045 0.33514404l0.29319763 0.37708282l0.25164795 0.4190216l0.12582397 0.4609604l0.041549683 0.5448456l-0.041549683 0.5025177l-0.12582397 0.4609604l-0.25164795 0.41902924l-0.29319763 0.3770752l-0.37709045 0.3355255l-0.4190216 0.20932007l-0.50289917 0.12582397l-0.5025177 0.04193878l-0.50289917 -0.04193878l-0.46096802 -0.12582397l-0.4190216 -0.20932007l-0.3770752 -0.3355255l-0.33514404 -0.3770752l-0.20970154 -0.41902924l-0.16738892 -0.4609604l-0.041931152 -0.5025177l0.041931152 -0.5448456l0.16738892 -0.4609604l0.20970154 -0.4190216l0.33514404 -0.37708282l0.3770752 -0.33514404l0.4190216 -0.20970154l0.46096802 -0.12543488l0.50289917 -0.04193878zm-1.6760864 -4.1902237l-0.586792 0.04193878l-0.5448456 0.08388519l-0.54444885 0.12543488l-0.50289917 0.20970154l-0.5029144 0.25125885l-0.46095276 0.33514404l-0.46096802 0.3774643l-0.4190216 0.41864014l-0.4190216 0.50289917l-0.33514404 0.5029068l-0.29319763 0.58678436l-0.20970154 0.5864029l-0.20932007 0.58678436l-0.12582397 0.67028046l-0.08387756 0.6706619l0 0.75416565l0 0.71221924l0.08387756 0.6702881l0.12582397 0.6706619l0.20932007 0.6283417l0.20970154 0.58678436l0.29319763 0.5444565l0.33514404 0.5029068l0.4190216 0.50289917l0.4190216 0.41902924l0.46096802 0.3770752l0.46095276 0.33514404l0.5029144 0.25164032l0.50289917 0.20932007l0.54444885 0.16776276l0.5448456 0.08388519l1.0473633 0l0.4190216 -0.04194641l0.4190216 -0.08387756l0.4190216 -0.12582397l0.37747192 -0.16737366l0.3770752 -0.20970917l0.33514404 -0.20931244l0.33514404 -0.25164795l0.50289917 -0.5444565l0.4190216 -0.58678436l0.1254425 0l0 1.2570648l0 0.3351364l-0.041549683 0.33514404l-0.08389282 0.29358673l-0.12582397 0.29319763l-0.12580872 0.29319763l-0.16738892 0.25164795l-0.16775513 0.25125885l-0.20932007 0.25125885l-0.25164795 0.20970154l-0.25125122 0.16738129l-0.2932129 0.16776276l-0.2935791 0.12582397l-0.29319763 0.083496094l-0.33514404 0.08387756l-0.33514404 0.04193878l-0.3770752 0.04194641l-0.7126007 -0.08388519l-0.33514404 -0.04193878l-0.33514404 -0.083496094l-0.29319763 -0.08388519l-0.29359436 -0.16776276l-0.25125122 -0.12581635l-0.29319763 -0.16738129l-0.25164795 -0.20970154l-0.20932007 -0.16738129l-0.20970154 -0.20970154l-0.16737366 -0.20932007l-2.7657776 2.9331512l0.2935791 0.37708282l0.37709045 0.33514404l0.4190216 0.3351364l0.4190216 0.33514404l0.54444885 0.3355255l0.5448456 0.29319763l0.586792 0.20932007l0.58639526 0.20970154l0.62872314 0.16738129l0.6283417 0.08387756l0.67066956 0.08388519l1.5083313 0l0.7960968 -0.12582397l0.71221924 -0.16737366l0.71261597 -0.25164795l0.6702728 -0.29319763l0.6702881 -0.37708282l0.62872314 -0.4190216l0.5444641 -0.5448456l0.5448303 -0.5444565l0.46096802 -0.58678436l0.3770752 -0.58678436l0.33514404 -0.6283417l0.25164795 -0.67028046l0.16737366 -0.71260834l0.08389282 -0.71222687l0.041931152 -0.754158l0 -12.151642l-4.7350616 0l0 1.9696732l-0.1254425 0l-0.4190216 -0.58678436l-0.50289917 -0.5448456l-0.33514404 -0.25125885l-0.33514404 -0.20970154l-0.3770752 -0.20932007l-0.37747192 -0.16776276l-0.4190216 -0.083496094l-0.4190216 -0.08387756l-0.4190216 -0.08388519z" fill-rule="evenodd"/><path fill="#201f2a" d="m66.540825 108.86345l0.4190216 0.04193878l0.4190216 0.08388519l0.37708282 0.20970154l0.33514404 0.29319763l0.2935791 0.33514404l0.20932007 0.3351364l0.12582397 0.37708282l0.04193878 0.4190216l-0.04193878 0.37708282l-0.12582397 0.3774643l-0.20932007 0.37708282l-0.2935791 0.33514404l-0.33514404 0.25125885l-0.37708282 0.20970154l-0.4190216 0.12543488l-3.6453743 0l0 -4.1482773zm-8.505878 -4.776619l0 19.526268l5.2795258 0l0 -5.8243637l3.5195503 0l0.7545471 -0.04193878l0.75416565 -0.08388519l0.71221924 -0.16737366l0.6702881 -0.20970917l0.62872314 -0.25125885l0.58678436 -0.3355255l0.5864029 -0.4186325l0.50289917 -0.4190216l0.4609604 -0.5029068l0.4190216 -0.5448456l0.37708282 -0.58678436l0.25125885 -0.5864029l0.25164795 -0.62872314l0.16737366 -0.67028046l0.08388519 -0.67028046l0.04193878 -0.71260834l-0.04193878 -0.754158l-0.08388519 -0.6702881l-0.16737366 -0.6706619l-0.25164795 -0.6283417l-0.25125885 -0.58678436l-0.37708282 -0.5444565l-0.4190216 -0.5448456l-0.4609604 -0.5029068l-0.50289917 -0.4609604l-0.5864029 -0.37708282l-0.58678436 -0.3351364l-0.62872314 -0.29320526l-0.6702881 -0.20970154l-0.71221924 -0.16738129l-0.75416565 -0.08387756l-0.7545471 -0.04193878z" fill-rule="evenodd"/><path fill="#201f2a" d="m83.97199 114.01753l0.25125885 0.04194641l0.20970154 0.08387756l0.25125885 0.083496094l0.20970154 0.12582397l0.25125885 0.12582397l0.20970154 0.16737366l0.16738129 0.20970154l0.20970154 0.20932007l0.16738129 0.20970154l0.12582397 0.20932007l0.12581635 0.25164795l0.08388519 0.25125885l0.041557312 0.25164032l0.04193878 0.29320526l0.04193878 0.25125885l-0.04193878 0.2935791l-0.04193878 0.25126648l-0.041557312 0.29319763l-0.08388519 0.25164032l-0.12581635 0.25125885l-0.12582397 0.20970917l-0.16738129 0.20931244l-0.20970154 0.25125885l-0.37708282 0.3355255l-0.25125885 0.1254425l-0.20970154 0.12582397l-0.25125885 0.08387756l-0.20970154 0.08388519l-0.25125885 0.041549683l-0.5448456 0l-0.25125885 -0.041549683l-0.25125885 -0.08388519l-0.20970917 -0.08387756l-0.25125885 -0.12582397l-0.20970154 -0.1254425l-0.4190216 -0.3355255l-0.33514404 -0.4605713l-0.16776276 -0.20970917l-0.083496094 -0.25125885l-0.08387756 -0.25164032l-0.08388519 -0.29319763l-0.04193878 -0.25126648l0 -0.2935791l0 -0.25125885l0.04193878 -0.29320526l0.08388519 -0.25164032l0.08387756 -0.25125885l0.083496094 -0.25164795l0.16776276 -0.20932007l0.12582397 -0.20970154l0.20932007 -0.20932007l0.4190216 -0.3770752l0.20970154 -0.12582397l0.25125885 -0.12582397l0.20970917 -0.083496094l0.25125885 -0.08387756l0.25125885 -0.04194641zm-1.0473633 -4.31604l-0.7545471 0.12582397l-0.75416565 0.16776276l-0.67028046 0.20932007l-0.67066956 0.2935791l-0.6283417 0.37708282l-0.58678436 0.4190216l-0.5444565 0.46057892l-0.5029068 0.5448456l-0.4190216 0.5448456l-0.3770752 0.58639526l-0.29320526 0.6287308l-0.25164032 0.62833405l-0.16738129 0.67066956l-0.08387756 0.71221924l-0.04194641 0.71222687l0.04194641 0.754158l0.08387756 0.67066956l0.16738129 0.67028046l0.25164032 0.67066956l0.29320526 0.58639526l0.3770752 0.62872314l0.4190216 0.5444641l0.5029068 0.5448456l0.5444565 0.4609604l0.58678436 0.4190216l0.6283417 0.37708282l0.67066956 0.29319763l0.67028046 0.20970154l0.75416565 0.16738129l0.7545471 0.08387756l0.754158 0.04194641l0.79610443 -0.04194641l0.75416565 -0.08387756l0.71221924 -0.16738129l0.71260834 -0.20970154l0.6283417 -0.29319763l0.6283417 -0.37708282l0.58678436 -0.4190216l0.54483795 -0.4609604l0.5029068 -0.5448456l0.46057892 -0.5444641l0.3774643 -0.62872314l0.29319763 -0.58639526l0.25125885 -0.67066956l0.16776276 -0.67028046l0.08388519 -0.67066956l0.041557312 -0.754158l-0.041557312 -0.71222687l-0.08388519 -0.71221924l-0.16776276 -0.67066956l-0.25125885 -0.62833405l-0.29319763 -0.6287308l-0.3774643 -0.58639526l-0.46057892 -0.5448456l-0.5029068 -0.5448456l-0.54483795 -0.46057892l-0.58678436 -0.4190216l-0.6283417 -0.37708282l-0.6283417 -0.2935791l-0.71260834 -0.20932007l-0.71221924 -0.16776276l-0.75416565 -0.12582397z" fill-rule="evenodd"/><path fill="#201f2a" d="m96.374886 103.541985l-0.5448456 0.04193878l-0.25125885 0.08388519l-0.25125885 0.04193878l-0.25164032 0.12582397l-0.20932007 0.12543488l-0.20970154 0.12582397l-0.16738129 0.16776276l-0.16776276 0.20931244l-0.16776276 0.16776276l-0.12543488 0.20932007l-0.08388519 0.20970917l-0.08387756 0.25125885l-0.08388519 0.25164032l-0.04193878 0.5025177l0.04193878 0.5029068l0.16776276 0.50289917l0.08388519 0.20932007l0.12543488 0.20970154l0.3355255 0.37708282l0.16738129 0.16776276l0.20970154 0.16738129l0.20932007 0.08387756l0.25164032 0.12582397l0.5025177 0.12543488l0.5448456 0.04194641l0.58678436 -0.04194641l0.5025177 -0.12543488l0.20970917 -0.12582397l0.20931244 -0.08387756l0.20970917 -0.16738129l0.20932007 -0.16776276l0.16776276 -0.16776276l0.16776276 -0.20932007l0.12543488 -0.20970154l0.08387756 -0.20932007l0.08388519 -0.25164032l0.08387756 -0.25125885l0.04194641 -0.5029068l-0.04194641 -0.5025177l-0.08387756 -0.25164032l-0.08388519 -0.25125885l-0.08387756 -0.20970917l-0.12543488 -0.20932007l-0.16776276 -0.16776276l-0.16776276 -0.20931244l-0.20932007 -0.16776276l-0.20970917 -0.12582397l-0.20931244 -0.12543488l-0.20970917 -0.12582397l-0.25125885 -0.04193878l-0.25125885 -0.08388519l-0.58678436 -0.04193878zm-2.346367 6.411148l0 13.6599655l4.73468 0l0 -13.6599655z" fill-rule="evenodd"/><path fill="#201f2a" d="m110.621635 109.70149l-0.4190216 0.04193878l-0.4190216 0.08388519l-0.3774643 0.12581635l-0.37708282 0.16738129l-0.33514404 0.20970154l-0.3351364 0.20932007l-0.33514404 0.25164795l-0.29319763 0.29319763l-0.20970154 0.25125885l-0.20932007 0.29358673l-0.16776276 0.29319763l-0.16776276 0l0 -1.9692917l-4.73468 0l0 13.6599655l4.73468 0l0 -6.955612l0.04193878 -0.54483795l0.12582397 -0.5029068l0.20932007 -0.4190216l0.25164032 -0.33514404l0.33514404 -0.3351364l0.37708282 -0.20970154l0.4190216 -0.1254425l0.50289917 -0.04193878l0.37708282 0.04193878l0.37708282 0.1254425l0.3351364 0.16776276l0.29358673 0.29319763l0.25125885 0.29319763l0.16776276 0.3774643l0.083496094 0.46057892l0.04194641 0.46096802l0 7.2491913l4.7350616 0l0 -8.212677l0 -0.62872314l-0.08388519 -0.6283417l-0.08387756 -0.58678436l-0.16738129 -0.5448456l-0.16776276 -0.5025177l-0.25125885 -0.4609604l-0.2935791 -0.4190216l-0.29320526 -0.4190216l-0.37708282 -0.33514404l-0.3770752 -0.3355255l-0.37708282 -0.25125885l-0.4609604 -0.20932007l-0.41902924 -0.16776276l-0.50289917 -0.12582397l-0.5029068 -0.08387756z" fill-rule="evenodd"/><path fill="#201f2a" d="m120.552345 106.056114l0 2.5141373l-0.04193878 0.3351364l-0.08388519 0.3355255l-0.16776276 0.29319763l-0.20932007 0.25125885l-0.25164032 0.20970917l-0.29320526 0.12543488l-0.29319763 0.08388519l-0.3351364 0.04193878l-0.83805084 0l0 4.441475l1.9273529 0l0 3.9389648l0.04193878 0.5864029l0.04193878 0.58678436l0.1254425 0.54483795l0.12581635 0.5025253l0.16776276 0.4609604l0.25125885 0.4190216l0.25164795 0.4190216l0.3351364 0.37708282l0.33514404 0.3355255l0.37708282 0.25125885l0.37708282 0.25125885l0.4609604 0.20970154l0.4609604 0.12582397l0.46096802 0.12543488l0.5444565 0.04193878l0.5448456 0.04194641l0.50289917 0l0.5029068 -0.04194641l0.5025177 -0.08387756l0.4609604 -0.083496094l0.79610443 -0.20970154l0 -4.3160477l-0.16737366 0.08388519l-0.20970917 0.04193878l-0.5025177 0.12582397l-0.50289917 0.04193878l-0.37708282 -0.04193878l-0.29358673 -0.08388519l-0.25125885 -0.12581635l-0.20970154 -0.16738129l-0.16738129 -0.25164795l-0.12582397 -0.29319763l-0.08387756 -0.3351364l-0.04193878 -0.37708282l0 -3.1009216l2.6818924 0l0 -4.441475l-2.6818924 0l0 -4.1902237z" fill-rule="evenodd"/><path fill="#fb5235" d="m137.31284 115.52586l-0.4190216 0.04193878l-0.4190216 0.04193878l-0.4190216 0.08388519l-0.3770752 0.16776276l-0.37709045 0.16737366l-0.33512878 0.20970154l-0.3355255 0.25125885l-0.29319763 0.25125885l-0.25126648 0.29358673l-0.25164795 0.33514404l-0.20932007 0.3351364l-0.16775513 0.37708282l-0.16737366 0.37708282l-0.08389282 0.4190216l-0.041931152 0.4190216l-0.04194641 0.4190216l0.04194641 0.4190216l0.041931152 0.4190216l0.08389282 0.4190216l0.16737366 0.37708282l0.16775513 0.33514404l0.20932007 0.3770752l0.25164795 0.29358673l0.25126648 0.29320526l0.29319763 0.29319763l0.3355255 0.25164032l0.33512878 0.20932007l0.37709045 0.16776276l0.3770752 0.12582397l0.4190216 0.12543488l0.4190216 0.04193878l0.4190216 0.04194641l0.4190216 -0.04194641l0.4190216 -0.04193878l0.4190216 -0.12543488l0.37709045 -0.12582397l0.33514404 -0.16776276l0.3770752 -0.20932007l0.2935791 -0.25164032l0.2932129 -0.29319763l0.29319763 -0.29320526l0.2516327 -0.29358673l0.20932007 -0.3770752l0.16777039 -0.33514404l0.1254425 -0.37708282l0.12580872 -0.4190216l0.04194641 -0.4190216l0.04194641 -0.4190216l-0.04194641 -0.4190216l-0.04194641 -0.4190216l-0.12580872 -0.4190216l-0.1254425 -0.37708282l-0.16777039 -0.37708282l-0.20932007 -0.3351364l-0.2516327 -0.33514404l-0.29319763 -0.29358673l-0.2932129 -0.25125885l-0.2935791 -0.25125885l-0.3770752 -0.20970154l-0.33514404 -0.16737366l-0.37709045 -0.16776276l-0.4190216 -0.08388519l-0.4190216 -0.04193878l-0.4190216 -0.04193878z" fill-rule="evenodd"/><path fill="#ffffff" d="m34.93176 424.83203l303.55905 0l0 86.519684l-303.55905 0z" fill-rule="evenodd"/><path fill="#fb5235" d="m57.519684 389.8155l37.70079 0l0 5.448822l-37.70079 0z" fill-rule="evenodd"/><path fill="#000000" fill-opacity="0.0" d="m56.692913 454.69028l485.25986 0l0 34.141754l-485.25986 0z" fill-rule="evenodd"/><path fill="#fb5235" d="m72.19292 477.7303l0 -11.203125l-4.515625 11.203125l-1.484375 0l-4.515629 -11.203125l0 11.203125l-3.40625 0l0 -16.015625l4.78125 0l3.8906288 9.671875l3.890625 -9.671875l4.796875 0l0 16.015625l-3.4375 0zm11.910568 0.28125q-2.6875 0 -4.40625 -1.71875q-1.71875 -1.734375 -1.71875 -4.375q0 -2.640625 1.71875 -4.34375q1.71875 -1.71875 4.40625 -1.71875q2.6875 0 4.40625 1.71875q1.734375 1.703125 1.734375 4.34375q0 2.671875 -1.734375 4.390625q-1.71875 1.703125 -4.40625 1.703125zm0 -2.703125q1.3125 0 2.140625 -0.9375q0.828125 -0.953125 0.828125 -2.453125q0 -1.4375 -0.828125 -2.390625q-0.828125 -0.96875 -2.140625 -0.96875q-1.28125 0 -2.125 0.9375q-0.828125 0.921875 -0.828125 2.421875q0 1.546875 0.828125 2.46875q0.84375 0.921875 2.125 0.921875zm12.57283 2.703125q-1.515625 0 -2.890625 -0.46875q-1.375 -0.484375 -2.296875 -1.328125l1.328125 -2.125q0.6875 0.640625 1.84375 1.109375q1.15625 0.46875 2.15625 0.46875q1.953125 0 1.953125 -1.25q0 -0.484375 -0.515625 -0.71875q-0.515625 -0.234375 -1.265625 -0.40625l-1.65625 -0.34375q-3.453125 -0.734375 -3.453125 -3.453125q0 -1.609375 1.328125 -2.625q1.328125 -1.015625 3.421875 -1.015625q2.71875 0 4.671875 1.578125l-1.21875 2.09375q-0.53125 -0.5625 -1.4375 -0.953125q-0.90625 -0.390625 -2.0 -0.390625q-0.828125 0 -1.328125 0.34375q-0.484375 0.328125 -0.484375 0.796875q0 0.4375 0.5 0.65625q0.5 0.21875 1.265625 0.375q0.78125 0.15625 1.65625 0.359375q0.890625 0.203125 1.65625 0.609375q0.78125 0.40625 1.28125 1.109375q0.5 0.6875 0.5 1.859375q0 1.6875 -1.375 2.703125q-1.359375 1.015625 -3.640625 1.015625zm12.666718 0q-2.734375 0 -4.4375 -1.71875q-1.703125 -1.734375 -1.703125 -4.375q0 -2.609375 1.703125 -4.328125q1.703125 -1.734375 4.4375 -1.734375q1.78125 0 2.890625 0.65625q1.125 0.640625 1.703125 1.421875l-2.0 1.875q-0.84375 -1.25 -2.4375 -1.25q-1.40625 0 -2.28125 0.9375q-0.875 0.921875 -0.875 2.421875q0 1.515625 0.875 2.453125q0.875 0.9375 2.28125 0.9375q1.546875 0 2.4375 -1.25l2.0 1.84375q-0.578125 0.8125 -1.703125 1.46875q-1.109375 0.640625 -2.890625 0.640625zm11.960342 0q-2.6875 0 -4.40625 -1.71875q-1.71875 -1.734375 -1.71875 -4.375q0 -2.640625 1.71875 -4.34375q1.71875 -1.71875 4.40625 -1.71875q2.6875 0 4.40625 1.71875q1.734375 1.703125 1.734375 4.34375q0 2.671875 -1.734375 4.390625q-1.71875 1.703125 -4.40625 1.703125zm0 -2.703125q1.3125 0 2.140625 -0.9375q0.828125 -0.953125 0.828125 -2.453125q0 -1.4375 -0.828125 -2.390625q-0.828125 -0.96875 -2.140625 -0.96875q-1.28125 0 -2.125 0.9375q-0.828125 0.921875 -0.828125 2.421875q0 1.546875 0.828125 2.46875q0.84375 0.921875 2.125 0.921875zm18.57283 2.421875l-2.453125 -7.890625l-2.4375 7.890625l-3.265625 0l-3.53125 -11.59375l3.171875 0l2.15625 7.796875l2.546875 -7.796875l2.703125 0l2.546875 7.796875l2.15625 -7.796875l3.171875 0l-3.53125 11.59375l-3.234375 0z" fill-rule="nonzero"/><path fill="#000000" fill-opacity="0.0" d="m880.7559 488.8324l0 -87.84253l22.551147 0l0 87.84253z" fill-rule="evenodd"/><path fill="#000000" d="m902.5559 487.9574l-8.890625 0l0 -4.6875q0 -1.15625 0.625 -1.84375q0.625 -0.703125 1.640625 -0.703125q0.796875 0 1.359375 0.4375q0.546875 0.421875 0.6875 1.09375q0.09375 -0.703125 0.71875 -1.203125q0.609375 -0.515625 1.453125 -0.515625q1.078125 0 1.75 0.703125q0.65625 0.6875 0.65625 1.890625l0 4.828125zm-5.328125 -4.265625q0 -0.484375 -0.265625 -0.765625q-0.265625 -0.28125 -0.703125 -0.28125q-0.421875 0 -0.6875 0.28125q-0.28125 0.28125 -0.28125 0.765625l0 2.375l1.9375 0l0 -2.375zm3.6875 -0.078125q0 -0.53125 -0.265625 -0.828125q-0.28125 -0.3125 -0.765625 -0.3125q-0.421875 0 -0.71875 0.296875q-0.3125 0.296875 -0.3125 0.84375l0 2.453125l2.0625 0l0 -2.453125zm1.640625 -6.5771484l-3.640625 0l-5.25 3.421875l0 -2.15625l3.578125 -2.21875l-3.578125 -2.171875l0 -2.171875l5.25 3.40625l3.640625 0l0 1.890625zm0 -9.524231l-8.890625 0l0 -3.515625q0 -2.09375 1.234375 -3.40625q1.21875 -1.3125 3.21875 -1.3125q1.984375 0 3.21875 1.3125q1.21875 1.3125 1.21875 3.40625l0 3.515625zm-1.671875 -3.515625q0 -1.234375 -0.765625 -2.0q-0.78125 -0.78125 -2.0 -0.78125q-1.265625 0 -2.015625 0.75q-0.765625 0.734375 -0.765625 2.03125l0 1.625l5.546875 0l0 -1.625zm1.671875 -6.0539246l-8.890625 0l0 -1.890625l8.890625 0l0 1.890625zm0 -9.792511l-5.796875 4.25l5.796875 0l0 1.890625l-8.890625 0l0 -1.953125l5.578125 -4.109375l-5.578125 0l0 -1.90625l8.890625 0l0 1.828125zm0.15625 -6.7318115q0 2.359375 -1.40625 3.75l-1.4375 -1.03125q0.484375 -0.453125 0.84375 -1.171875q0.34375 -0.734375 0.34375 -1.640625q0 -0.796875 -0.296875 -1.171875q-0.296875 -0.375 -0.6875 -0.375q-0.390625 0 -0.609375 0.4375q-0.234375 0.4375 -0.640625 2.109375q-0.609375 2.5625 -2.578125 2.5625q-1.15625 0 -1.921875 -0.921875q-0.78125 -0.921875 -0.78125 -2.453125q0 -2.109375 1.234375 -3.453125l1.390625 1.046875q-0.984375 1.046875 -0.984375 2.578125q0 0.625 0.25 0.953125q0.25 0.3125 0.640625 0.3125q0.359375 0 0.546875 -0.375q0.1875 -0.375 0.328125 -0.953125l0.3125 -1.21875q0.640625 -2.546875 2.609375 -2.546875q1.3125 0 2.078125 0.953125q0.765625 0.9375 0.765625 2.609375z" fill-rule="nonzero"/></g></svg>